<?xml version="1.0" encoding="UTF-8" standalone="no"?><!-- Generator: Gravit.io --><svg xmlns="http://www.w3.org/2000/svg" xmlns:xlink="http://www.w3.org/1999/xlink" style="isolation:isolate" viewBox="0 0 1366 197" width="1366pt" height="197pt"><defs><clipPath id="_clipPath_iZkle8CfRz2EREtNAbZD8BD77lgJcp0j"><rect width="1366" height="197"/></clipPath></defs><g clip-path="url(#_clipPath_iZkle8CfRz2EREtNAbZD8BD77lgJcp0j)"><clipPath id="_clipPath_PI85O01mRi2V7YfjInCN6wT0244NwjrE"><rect x="0" y="0" width="1366" height="197" transform="matrix(1,0,0,1,0,0)" fill="rgb(255,255,255)"/></clipPath><g clip-path="url(#_clipPath_PI85O01mRi2V7YfjInCN6wT0244NwjrE)"><g><clipPath id="_clipPath_wYfd9SJNvSvuoph2nwWUJVWOJZhpGLh9"><rect x="0" y="0" width="1366" height="197" transform="matrix(1,0,0,1,0,0)" fill="rgb(255,255,255)"/></clipPath><g clip-path="url(#_clipPath_wYfd9SJNvSvuoph2nwWUJVWOJZhpGLh9)"><g><g><mask id="_mask_YWAveAWGYaT4tQdP0aQLoZEMzTNlZG2R" x="-200%" y="-200%" width="400%" height="400%"><rect x="-200%" y="-200%" width="400%" height="400%" style="fill:white;"/><path d=" M 0 0 L 1366 0 L 1366 197 L 0 197 L 0 0 Z " fill="black" stroke="none"/></mask><path d=" M 0 0 L 1366 0 L 1366 197 L 0 197 L 0 0 Z " fill="none" mask="url(#_mask_YWAveAWGYaT4tQdP0aQLoZEMzTNlZG2R)" vector-effect="non-scaling-stroke" stroke-width="2" stroke="rgb(0,0,0)" stroke-linejoin="miter" stroke-linecap="butt" stroke-miterlimit="10"/><path d=" M 0 0 L 1366 0 L 1366 197 L 0 197 L 0 0 Z " fill="none"/><clipPath id="_clipPath_XHEnzK2C2eO13gXiNYV6d9ZX7iEjX221"><path d=" M 0 0 L 1366 0 L 1366 197 L 0 197 L 0 0 Z " fill="none" mask="url(#_mask_YWAveAWGYaT4tQdP0aQLoZEMzTNlZG2R)" vector-effect="non-scaling-stroke" stroke-width="2" stroke="rgb(0,0,0)" stroke-linejoin="miter" stroke-linecap="butt" stroke-miterlimit="10"/><path d=" M 0 0 L 1366 0 L 1366 197 L 0 197 L 0 0 Z " fill="none"/></clipPath><g clip-path="url(#_clipPath_XHEnzK2C2eO13gXiNYV6d9ZX7iEjX221)"><g/></g><path d=" M 0 0 L 1366 0 L 1366 197 L 0 197 L 0 0 Z " fill="transparent" mask="url(#_mask_YWAveAWGYaT4tQdP0aQLoZEMzTNlZG2R)" vector-effect="non-scaling-stroke" stroke-width="2" stroke="rgb(0,0,0)" stroke-linejoin="miter" stroke-linecap="butt" stroke-miterlimit="10"/></g></g></g></g></g><path d=" M 293.813 197 C 573.333 172.667 529.333 52 608 0 L 1366 0 L 1366 197 L 293.813 197 Z " fill="rgb(242,247,253)"/></g></svg>