<?xml version="1.0" encoding="UTF-8" standalone="no"?>
<!-- Created with Inkscape (http://www.inkscape.org/) -->

<svg
   xmlns:dc="http://purl.org/dc/elements/1.1/"
   xmlns:cc="http://creativecommons.org/ns#"
   xmlns:rdf="http://www.w3.org/1999/02/22-rdf-syntax-ns#"
   xmlns:svg="http://www.w3.org/2000/svg"
   xmlns="http://www.w3.org/2000/svg"
   xmlns:sodipodi="http://sodipodi.sourceforge.net/DTD/sodipodi-0.dtd"
   xmlns:inkscape="http://www.inkscape.org/namespaces/inkscape"
   width="80px"
   height="80px"
   viewBox="0 0 80 80"
   version="1.1"
   id="SVGRoot"
   inkscape:version="0.92.3 (2405546, 2018-03-11)"
   sodipodi:docname="brasao.svg">
  <sodipodi:namedview
     id="base"
     pagecolor="#ffffff"
     bordercolor="#666666"
     borderopacity="1.0"
     inkscape:pageopacity="0.0"
     inkscape:pageshadow="2"
     inkscape:zoom="4"
     inkscape:cx="13.916924"
     inkscape:cy="31.297514"
     inkscape:document-units="px"
     inkscape:current-layer="layer1"
     showgrid="true"
     inkscape:window-width="1366"
     inkscape:window-height="692"
     inkscape:window-x="0"
     inkscape:window-y="36"
     inkscape:window-maximized="1"
     inkscape:grid-bbox="true">
    <inkscape:grid
       type="xygrid"
       id="grid9766" />
  </sodipodi:namedview>
  <defs
     id="defs9744" />
  <metadata
     id="metadata9747">
    <rdf:RDF>
      <cc:Work
         rdf:about="">
        <dc:format>image/svg+xml</dc:format>
        <dc:type
           rdf:resource="http://purl.org/dc/dcmitype/StillImage" />
        <dc:title></dc:title>
      </cc:Work>
    </rdf:RDF>
  </metadata>
  <g
     id="layer1"
     inkscape:groupmode="layer"
     inkscape:label="Camada 1">
    <path
       d="m 24.647508,39.149333 c 1.005415,0.644272 1.966315,1.355655 2.971177,2.000484 0.0394,0.02494 0.0404,0.03528 0.03372,-0.01458 -0.05868,-0.411672 -0.341999,-0.969137 -0.341999,-1.275414 0,-0.316403 0.210452,-0.304716 0.299706,-0.438157 0.08961,-0.133447 0.114513,-0.236942 0.198774,-0.339776 0.08458,-0.102277 0.27478,-0.117078 0.365595,-0.207006 0.09092,-0.09049 0.112955,-0.216352 0.156806,-0.311396 0.04332,-0.0946 0.0058,-0.141897 0.127764,-0.188641 0.122419,-0.04663 0.345454,-0.01114 0.48145,-0.04384 0.135995,-0.03283 0.168501,-0.152359 0.259315,-0.211345 0.09081,-0.05899 0.220467,-0.03885 0.282677,-0.140673 0.06244,-0.101943 -0.05084,-0.292144 0.04732,-0.399095 0.09816,-0.106953 0.361815,-0.0937 0.447621,-0.140675 0.08614,-0.04731 -0.08581,-0.05876 0.02371,-0.117414 0.109517,-0.05866 0.471326,-0.09905 0.589294,-0.211346 0.117641,-0.112296 -0.09426,-0.244176 0,-0.352017 0.09404,-0.107959 0.388409,-0.06411 0.471328,-0.187752 0.08272,-0.123305 -0.06311,-0.250518 -0.09427,-0.37539 0.07052,-0.08614 0.141565,-0.171946 0.211905,-0.258087 0.110175,-0.05486 0.219916,-0.109732 0.32998,-0.164712 0.157146,0.0158 0.314296,0.03195 0.47166,0.04708 0.07037,-0.03885 0.124641,-0.10506 0.212012,-0.117413 0.08737,-0.01226 0.156814,0.01174 0.282687,0.04708 0.126208,0.03528 0.387071,0.291141 0.542324,0.07035 0.15492,-0.22058 -0.0956,-0.835139 0.117641,-0.962235 0.327759,-0.194984 0.203783,0.128771 0.306283,0.211346 0.102933,0.08236 0.180844,0.201326 0.306716,0.234715 0.125869,0.0335 0.238841,0.0056 0.35336,-0.04697 0.114514,-0.05298 0.230259,-0.144458 0.282903,-0.258087 0.05276,-0.113842 -0.174394,-0.391529 0,-0.352019 0.17451,0.0394 0.33154,0.448508 0.541993,0.469431 0.210792,0.02081 0.20545,-0.348011 0.400986,-0.3755 0.195317,-0.02805 0.292143,0.260647 0.447621,0.281459 0.155587,0.02081 0.343561,-0.155809 0.42436,-0.16438 0.08047,-0.0078 0.08771,0.0927 0.164709,0.07067 0.07686,-0.02237 0.102829,-0.192424 0.235943,-0.187749 0.132778,0.0043 0.303829,0.286132 0.447621,0.281459 0.143903,-0.0043 0.154027,-0.244846 0.283014,-0.305055 0.128771,-0.06034 0.36092,-0.03849 0.471326,-0.117412 0.110068,-0.0788 0.05675,-0.219914 0.11764,-0.305054 0.06085,-0.0848 0.21647,-0.07257 0.235717,-0.187972 0.01961,-0.115184 -0.199993,-0.258088 -0.141338,-0.375502 0.05901,-0.117304 0.274448,-0.05831 0.376948,-0.0936 0.102829,-0.0354 0.19309,-0.04196 0.235718,-0.117413 0.04283,-0.07568 -0.143568,-0.231821 -0.02337,-0.258087 0.120198,-0.02648 0.303493,0.21012 0.44762,0.164045 0.14457,-0.04598 0.149578,-0.277563 0.212347,-0.375723 0.06276,-0.09748 0.08272,-0.157368 0.165043,-0.210676 0.08221,-0.05332 0.218582,-0.05053 0.306275,-0.09405 0.08803,-0.04384 0.127095,-0.12809 0.212346,-0.164378 0.0848,-0.03628 0.171948,-0.09994 0.282686,-0.04698 0.110739,0.05298 0.176621,0.311063 0.306274,0.328759 0.129657,0.01758 0.19365,-0.157145 0.212013,-0.258422 0.01862,-0.101286 -0.192756,-0.183298 -0.117629,-0.258088 0.07505,-0.07478 0.235942,0.06121 0.353576,0.02337 0.117412,-0.0375 0.229708,-0.14201 0.306391,-0.234382 0.07654,-0.09281 -0.05084,-0.166938 0.141339,-0.305387 0.192421,-0.138559 0.697471,-0.469099 0.966242,-0.492804 0.26877,-0.02337 0.223031,0.318631 0.377282,0.37539 0.154026,0.05709 0.297259,-0.112847 0.44773,-0.07 0.15047,0.04263 0.229266,0.225256 0.376946,0.304718 0.148018,0.0799 0.373502,0.09594 0.495034,0.16438 0.121752,0.06844 0.117293,0.181406 0.212229,0.234715 0.09506,0.05364 0.212013,0.131211 0.329988,0.07034 0.117402,-0.06087 0.115855,-0.361813 0.25909,-0.37539 0.14345,-0.01364 0.133104,0.279789 0.235934,0.328425 0.102172,0.04886 0.171613,-0.0423 0.258981,-0.0937 0.08771,-0.05143 0.08113,-0.120525 0.259314,-0.211012 0.178292,-0.09092 0.589295,-0.307279 0.801308,-0.328758 0.212344,-0.02149 0.216126,0.21101 0.353683,0.21101 0.137224,0 0.239166,-0.185748 0.353685,-0.21101 0.114514,-0.02527 0.200887,0.100943 0.282912,0.07035 0.08147,-0.03062 0.02646,-0.152692 0.09405,-0.211344 0.06752,-0.05866 0.201553,-0.01114 0.282685,-0.117413 0.08138,-0.106281 0.07254,-0.364038 0.164936,-0.469099 0.09249,-0.105287 0.183633,-0.171613 0.330313,-0.09394 0.146356,0.07724 0.268772,0.415456 0.424024,0.492693 0.155253,0.07734 0.264992,-0.08581 0.376949,-0.0937 0.112297,-0.0078 0.177289,0.07635 0.28302,0.04708 0.105946,-0.02972 0.203773,-0.174507 0.306274,-0.211679 0.102954,-0.03662 0.205786,0.01636 0.28302,0 0.07705,-0.01614 0.09748,-0.08525 0.165044,-0.09338 0.06711,-0.0089 0.134005,0.06811 0.212237,0.04663 0.07772,-0.02149 0.09181,-0.135668 0.212013,-0.164044 0.119857,-0.02904 0.344896,0.01174 0.470993,0 0.126535,-0.01199 0.145454,-0.0315 0.283012,-0.07035 0.137557,-0.0394 0.448623,-0.01126 0.542334,-0.164713 0.09303,-0.152916 -0.198106,-0.344117 -0.141346,-0.492693 0.05643,-0.148352 0.301607,-0.101287 0.400319,-0.18775 0.09938,-0.08648 0.06209,-0.178848 0.165051,-0.305054 0.103173,-0.126208 0.365597,-0.327199 0.447947,-0.44606 0.08205,-0.118635 -0.137892,-0.08236 0.02337,-0.234382 0.161155,-0.152693 0.669984,-0.44105 0.895912,-0.633811 0.225249,-0.193093 0.274446,-0.293144 0.447612,-0.516509 0.172948,-0.22303 0.576723,-0.559913 0.589294,-0.82145 0.0124,-0.261538 -0.449508,-0.04131 -0.541883,-0.164378 -0.09249,-0.122651 0.137223,-0.194986 0.188306,-0.305055 0.05141,-0.110068 0.06118,-0.255527 0.117641,-0.351795 0.05651,-0.09649 0.08272,-0.08225 0.212346,-0.211344 0.129316,-0.128991 0.598083,0.208562 0.659626,-0.187973 0.06186,-0.39598 -0.322743,-0.262206 -0.470985,-0.37539 -0.148577,-0.112955 -0.194317,-0.572935 -0.424359,-0.609884 -0.229932,-0.03717 -0.211679,0.406997 -0.447621,0.469099 -0.236277,0.0622 -0.595972,-0.171281 -0.801641,-0.140675 -0.205668,0.03027 -0.128648,0.262205 -0.306274,0.305054 -0.177624,0.04331 -0.500041,-0.0078 -0.659969,-0.07035 -0.159701,-0.06311 -0.102599,-0.237498 -0.235716,-0.281682 -0.133107,-0.04419 -0.264323,0.0956 -0.471328,0.04697 -0.206886,-0.04852 -0.559579,-0.287025 -0.730632,-0.328424 -0.170946,-0.04163 -0.123646,0.129317 -0.23561,0.0937 -0.112297,-0.03561 -0.225919,-0.246736 -0.353685,-0.281682 -0.128103,-0.03505 -0.22904,0.0858 -0.329647,0.09405 -0.100953,0.0078 -0.189308,-0.05119 -0.259647,-0.04708 -0.07003,0.0043 -0.0808,0.05843 -0.141338,0.07034 -0.06019,0.01199 -0.14513,-0.03973 -0.212347,0 -0.06652,0.03973 -0.02964,0.175732 -0.141347,0.211347 -0.111279,0.0354 -0.331206,-0.03528 -0.447613,-0.02359 -0.116407,0.01199 -0.140679,0.07034 -0.235609,0.09404 -0.09506,0.02327 -0.210452,-0.05085 -0.330097,0.04698 -0.119534,0.09748 -0.135559,0.375057 -0.329979,0.492803 -0.194652,0.117641 -0.553569,0.203444 -0.754231,0.257977 -0.200661,0.05499 -0.249515,0.04608 -0.44773,0.164379 -0.198098,0.1183 -0.537876,0.342002 -0.730632,0.445839 -0.192982,0.104069 -0.287695,0.0829 -0.400654,0.07067 -0.112632,-0.01268 -0.15103,-0.146126 -0.23561,-0.141007 -0.08491,0.0056 -0.03915,0.16427 -0.165042,0.16427 -0.125868,0 -0.344789,-0.168387 -0.494925,-0.16427 -0.150461,0.0043 -0.238163,0.152026 -0.329979,0.18764 -0.09216,0.03596 -0.137224,-0.05076 -0.212013,0.0237 -0.07478,0.07445 -0.08736,0.319186 -0.188641,0.37539 -0.10161,0.0562 -0.156145,-0.136334 -0.235717,-0.140673 -0.07946,-0.0043 -0.02931,0.219802 -0.164936,0.117294 -0.135994,-0.102829 -0.48212,-0.420464 -0.518621,-0.633812 -0.0363,-0.212902 0.275333,-0.197432 0.353577,-0.328312 0.07788,-0.13132 0.187079,-0.194986 0.09404,-0.422801 -0.09301,-0.22747 -0.556111,-0.582048 -0.612652,-0.844808 -0.05643,-0.262763 0.444508,-0.321526 0.329987,-0.469432 -0.112632,-0.14546 -2.804906,-1.505457 -4.268076,-2.286619 -0.07754,-0.04163 -0.06911,-0.0394 -0.126427,0.02939 -0.08493,0.100609 -0.17173,0.217021 -0.24863,0.262428 -0.09527,0.05587 -0.121192,-0.02704 -0.212013,-0.02359 -0.09116,0.0046 -0.239165,0.0056 -0.329979,0.04697 -0.09116,0.04141 -0.116407,0.154251 -0.188307,0.187752 -0.07219,0.03372 -0.153701,-0.102506 -0.212345,0 -0.05901,0.102829 -0.1202,0.372828 -0.07069,0.493024 0.04916,0.120199 0.224917,-0.05143 0.283013,0.02337 0.05768,0.07513 0.009,0.200327 -0.04741,0.281793 -0.05575,0.08102 -0.189193,0.07379 -0.259307,0.164045 -0.07003,0.09049 -0.05484,0.249853 -0.141563,0.352019 -0.08614,0.102506 -0.222814,0.171614 -0.353361,0.235052 -0.130652,0.06276 -0.29125,0.153581 -0.424357,0.140671 -0.132764,-0.01321 -0.167826,-0.181741 -0.282678,-0.211344 -0.114741,-0.02938 -0.219809,-0.05485 -0.353243,-0.04708 -0.134115,0.0078 -0.440168,-0.05543 -0.542334,0.0237 -0.102506,0.07924 0.02931,0.261873 -0.09437,0.375391 -0.123646,0.113627 -0.212013,0.180181 -0.42425,0.258087 -0.419576,2.198919 -0.950216,5.215727 -1.262835,6.621797 -0.0042,0.01267 -0.01427,0.01892 -0.02111,0.0043 -0.23194,-0.80854 -0.425588,-1.390936 -0.6376,-2.083398 -0.0099,-0.03284 -0.01836,-0.02683 -0.03164,0.0032 -1.061172,2.010277 -2.085509,4.411638 -3.208341,5.898506 -1.130067,1.496552 -2.332361,1.876392 -3.417573,2.863224 -0.118311,0.107624 0.02212,0.359922 -0.09427,0.469433 -0.08172,0.07667 -0.227481,-0.116082 -0.32998,-0.07035 -0.224365,0.09971 -0.437939,0.381736 -0.565698,0.469432 -0.127762,0.08737 -0.130324,0.0056 -0.18864,0.04697 -0.05809,0.04141 -0.08012,0.133105 -0.141348,0.187417 -0.06118,0.05485 -0.147015,0.08993 -0.220466,0.135 -0.02496,0.01458 -0.01736,0.0124 0.0058,0.02648 z m 25.86105,-24.62404 c -0.05367,0.10917 -0.07345,0.259645 0.02779,0.306278 0.101286,0.0464 0.257419,0.0056 0.333993,-0.139116 0.105719,-0.202218 0.20667,-0.428699 0.297594,-0.669757 0.0697,-0.185193 0.133446,-0.378508 0.188975,-0.576385 0.375721,-1.3413 0.359587,-2.867009 -0.848383,-3.151251 -1.075755,-0.252966 -1.978334,0.979264 -2.440538,2.249335 -0.07848,0.215797 -0.144453,0.432818 -0.196203,0.643939 -0.05709,0.233714 -0.09748,0.459972 -0.118648,0.669425 -0.01862,0.175062 0.054,0.321413 0.11141,0.347901 0.05777,0.02594 0.218356,0.02972 0.334103,-0.320189 0.04098,-0.146684 0.09748,-0.345786 0.168716,-0.571599 0.0631,-0.199993 0.137892,-0.421465 0.2247,-0.646721 0.36593,-0.952776 0.94131,-1.975888 1.721806,-1.759759 0.862182,0.239169 0.869754,1.248368 0.581724,2.393569 -0.05008,0.199659 -0.109385,0.403772 -0.17506,0.60855 -0.0657,0.205667 -0.137221,0.412004 -0.212011,0.61578 z m -11.95738,-1.380584 c 2.26e-4,0.03796 -0.0032,0.07257 -0.01199,0.103829 -0.02779,0.10506 -0.102506,0.169054 -0.216127,0.170056 -0.08515,9.19e-4 -0.203114,-0.06276 -0.211678,-0.218356 v -0.001 c -0.0218,-0.451736 -0.03214,-1.014208 -0.02462,-1.574455 0.0058,-0.39876 0.02012,-0.796298 0.04608,-1.151878 0.265649,-0.803199 0.931294,-1.3912695 1.699437,-1.3448602 0.705151,0.042956 1.418422,0.6470552 1.663154,1.4483622 0.02972,0.329315 0.049,0.696246 0.06186,1.06507 0.01895,0.541661 0.02429,1.087107 0.02712,1.523372 0.0032,0.187418 -0.08747,0.275116 -0.210117,0.262541 -0.11552,-0.0056 -0.236945,-0.01992 -0.246736,-0.360032 -0.01127,-0.315738 0.01577,-0.875094 -0.0024,-1.445802 -0.01175,-0.358404 -0.04142,-0.721552 -0.110179,-1.031279 -0.164602,-0.48212 -0.73565,-0.961569 -1.171911,-0.971028 -0.504823,-0.01114 -1.059061,0.402212 -1.267291,0.925286 -0.05143,0.303718 -0.06377,0.671317 -0.06051,1.064958 0.0032,0.495364 0.03214,1.032575 0.0363,1.535728 z m -9.416019,1.380584 c 0.054,0.10917 0.07379,0.259645 -0.02779,0.306278 -0.101151,0.0464 -0.257084,0.0056 -0.333769,-0.139116 -0.197436,-0.378171 -0.379173,-0.842262 -0.508166,-1.326495 -0.352684,-1.321266 -0.313621,-2.792331 0.869751,-3.070898 1.057173,-0.248849 1.9474,0.936973 2.416164,2.182783 0.179517,0.476667 0.297259,0.962237 0.339221,1.379916 0.01894,0.175062 -0.01199,0.279456 -0.06944,0.305943 -0.05742,0.02626 -0.260315,0.07168 -0.375719,-0.278231 -0.08106,-0.289583 -0.221481,-0.78272 -0.419911,-1.286766 -0.367157,-0.932296 -0.933748,-1.902323 -1.695323,-1.691313 -0.842039,0.233493 -0.869193,1.201627 -0.601648,2.313662 0.102172,0.424693 0.24763,0.870419 0.406664,1.304237 z m 29.46092,-0.584285 c 0.06035,0.06943 0.113303,0.187417 0.05551,0.25052 -0.08357,0.09115 -0.24829,0.139448 -0.361807,0.08357 -0.980491,-0.608549 -1.432002,1.428773 -2.087187,2.44877 -0.07888,0.104723 -0.194091,0.13155 -0.278229,0.08357 -0.09439,-0.05364 -0.150803,-0.169164 -0.11141,-0.306054 1.013652,-3.129213 1.918127,-3.367381 2.783095,-2.560398 z M 20.848533,13.815466 c -0.06655,0.06311 -0.04351,0.222364 0.01424,0.285133 0.08357,0.09127 0.253303,0.149576 0.361814,0.0837 0.986497,-0.599088 1.61308,1.468839 2.121909,2.484049 0.05901,0.117306 0.194315,0.131553 0.278562,0.08325 0.09405,-0.05364 0.15492,-0.170388 0.11141,-0.306053 -1.009534,-3.130106 -2.029198,-3.443729 -2.887932,-2.630068 z m 1.449034,4.424215 c -0.102277,-0.164713 -0.04197,-0.399429 0.167156,-0.557464 2.248784,-1.044482 4.500563,-1.878287 6.755015,-2.506755 7.041039,-1.962198 14.110233,-1.913007 21.206137,0.0354 2.286944,0.628026 4.576344,1.45237 6.868866,2.471365 0.267211,0.134768 0.312392,0.410112 0.222696,0.612997 -0.110068,0.249519 -0.564035,0.313846 -1.058726,0.111626 -3.332326,-1.521148 -6.624251,-2.580541 -9.878108,-3.202332 -4.6971,-0.897909 -9.314411,-0.882995 -13.858488,-0.02303 -3.289472,0.622459 -6.540773,1.687196 -9.75579,3.169613 -0.222697,0.09771 -0.533095,0.106282 -0.668758,-0.111411 z m 1.070964,1.351538 -0.339996,-0.922505 -0.04232,-0.0067 0.0075,-0.0043 C 23.646462,18.357118 24.30097,18.0731 24.95593,17.806888 l 0.371605,0.910485 c -0.659635,0.27122 -1.312699,0.562473 -1.95942,0.87387 z M 21.545114,13.19056 c 0.466317,-0.24707 0.936087,-0.484902 1.408632,-0.713387 l 0.502819,1.044927 c 0.670428,-0.31774 1.347089,-0.614892 2.028534,-0.891231 l -0.413901,-1.103578 c 1.01332,-0.420796 2.03855,-0.798412 3.072677,-1.132513 -0.267769,0.355803 -0.384518,0.837255 -0.395203,1.40006 -0.760015,0.25397 -1.51491,0.532536 -2.263573,0.836031 l -0.413901,-1.103578 c -0.711719,0.295592 -1.418086,0.612333 -2.117452,0.949882 l 0.502819,1.044927 c -0.179184,0.08515 -0.358026,0.171281 -0.536316,0.258978 -0.225258,-0.25742 -0.486127,-0.462199 -0.798081,-0.591521 -0.188419,-0.04798 -0.382738,-0.04318 -0.577054,10e-4 z m 8.395465,-3.329875 c 0.384185,-0.104388 0.769372,-0.202887 1.155886,-0.295259 l 0.274782,1.217428 c 0.910483,-0.206112 1.825976,-0.377058 2.745257,-0.514282 L 33.966929,8.9921575 c 1.15399,-0.184857 2.313437,-0.3164043 3.475666,-0.3939756 l 0.01364,1.3242701 c 0.198432,-0.01126 0.397424,-0.02103 0.595854,-0.02961 0.299381,-0.7438798 0.890568,-1.1622294 1.766664,-1.1414176 0.932296,0.023029 1.460716,0.4394946 1.738612,1.1565536 0.249514,0.01253 0.498703,0.02749 0.747661,0.04508 V 8.5921741 c 1.159673,0.07478 2.317443,0.2044443 3.470883,0.3901928 l -0.140455,1.3549871 c 0.937647,0.150469 1.873053,0.33666 2.804024,0.557464 l 0.0042,-0.0067 0.340103,-1.290882 c 0.32019,0.07945 0.639828,0.163377 0.959014,0.252077 -0.491135,0.131551 -0.927513,0.488686 -1.299117,1.038805 l 0.34015,-1.290881 C 47.785535,9.349268 46.78235,9.1444891 45.775373,8.9823357 L 45.63492,10.337323 C 44.527339,10.1597 43.416527,10.031936 42.304489,9.95303 V 8.5921441 c -0.792509,-0.051427 -1.586252,-0.077021 -2.378987,-0.077021 -0.82846,0 -1.656926,0.027823 -2.483382,0.083036 l 0.01363,1.3242699 c -1.116821,0.06566 -2.231088,0.18085 -3.339671,0.34612 L 33.966506,8.9921347 C 33.005273,9.1463858 32.047486,9.337919 31.096052,9.565403 l 0.274781,1.217428 -0.218023,0.05007 c -0.339469,-0.474773 -0.742675,-0.824898 -1.212666,-0.97225 z m -6.870084,4.106473 c 0.392749,-0.192759 0.787726,-0.378171 1.184597,-0.556463 l 0.51105,1.136076 c -0.367483,0.157367 -0.733528,0.321747 -1.097898,0.491467 -0.175061,-0.395644 -0.36749,-0.762131 -0.597749,-1.07108 l 0.689898,1.285318 0.184861,-0.08547 0.284238,-0.129439 0.05969,0.129984 0.5312,1.154325 c 0.584616,-0.232488 1.169237,-0.451067 1.754416,-0.655845 l -0.177624,-0.495251 -0.32498,-0.906369 c -0.618891,0.240393 -1.233118,0.498369 -1.84267,0.773151 l 0.05969,0.129985 0.5312,1.154326 c -0.18453,0.07324 -0.369048,0.148242 -0.553349,0.224366 -0.169944,-0.435043 -0.331873,-0.877097 -0.506608,-1.293777 z m 3.504263,1.698882 -0.177622,-0.49525 -0.324973,-0.906369 c 0.627248,-0.244176 1.259388,-0.47099 1.894422,-0.68022 0.106954,0.485902 0.246069,0.990949 0.400655,1.499779 l -0.294924,0.08958 c -0.499038,0.153917 -0.99852,0.318296 -1.497558,0.49247 z m 5.394354,-3.159152 c 0.773154,-0.162488 1.54986,-0.300711 2.329466,-0.413561 l 0.174057,1.659036 c 1.004865,-0.13689 2.010838,-0.233712 3.017255,-0.29114 l -0.01703,-1.689756 c -1.061613,0.06188 -2.120339,0.169165 -3.174283,0.32186 l 0.174057,1.659036 c -0.698476,0.09527 -1.395947,0.210122 -2.093417,0.343896 -0.100724,-0.535652 -0.236604,-1.077979 -0.410111,-1.589371 z m 5.520778,0.954335 -0.01703,-1.689756 c 0.134673,-0.0078 0.26944,-0.01547 0.403775,-0.0217 -0.0058,0.51484 -0.0058,1.082097 0.0032,1.691202 l -0.390194,0.02025 z m 4.243701,-0.0078 c 0.02144,-0.569484 0.02212,-1.146758 0.01612,-1.685637 0.185187,0.0099 0.370379,0.02214 0.55524,0.03572 v 1.684636 c 1.021549,0.06878 2.043665,0.178179 3.066108,0.327089 l 0.135667,-1.645796 c -1.065078,-0.168134 -2.132928,-0.290222 -3.201779,-0.365901 v 1.684635 c -0.190536,-0.01321 -0.380738,-0.02471 -0.571382,-0.03472 z m 3.637482,0.361812 0.135668,-1.645794 c 0.724964,0.114513 1.448696,0.250409 2.170097,0.407219 -0.146681,0.47266 -0.27,0.996961 -0.369045,1.569224 -0.645502,-0.125867 -1.291221,-0.236606 -1.936715,-0.330649 z m 5.756161,1.258162 c 0.172839,-0.480226 0.324981,-0.964795 0.439717,-1.436342 0.71428,0.235273 1.42499,0.491803 2.131701,0.769367 l -0.274447,0.809542 -0.179518,0.529085 c 0.704481,0.24195 1.409189,0.502486 2.114005,0.780717 0.155813,-0.399651 0.306609,-0.813215 0.468205,-1.210751 l -0.208557,-0.09527 c -0.635702,-0.289026 -1.276081,-0.560023 -1.919688,-0.813327 l -0.274447,0.809543 -0.179518,0.529087 c -0.549229,-0.188409 -1.098458,-0.366033 -1.647688,-0.532191 -0.156471,-0.04741 -0.313285,-0.09371 -0.469765,-0.13945 z m 6.17385,2.266697 0.01321,-0.02492 0.02646,0.04251 z m -0.596306,1.460605 -0.509164,0.842039 c -0.568149,-0.270655 -1.142645,-0.527185 -1.723141,-0.768801 l 0.391187,-0.843932 c 0.51206,0.212681 1.025338,0.43571 1.539627,0.670428 0.09905,0.04818 0.200326,0.08036 0.301491,0.100266 z m -2.023416,-0.846381 -0.35936,0.857064 c -0.823343,-0.33844 -1.658372,-0.647611 -2.502973,-0.927735 l 0.383074,-0.86541 c 0.823677,0.283907 1.649908,0.595639 2.479259,0.936081 z m -2.664786,-1.000067 -0.352133,0.877988 C 50.865031,17.571045 50.056822,17.335997 49.24161,17.127434 l 0.223697,-0.951775 c 0.847383,0.229932 1.697879,0.489021 2.551269,0.778604 z m -2.740577,-0.82911 -0.192096,0.962235 C 48.095182,16.83911 47.096662,16.630325 46.091023,16.46027 l 0.195543,-1.007308 c 0.99251,0.18263 1.989135,0.406663 2.989433,0.672206 z m -3.186312,-0.707932 -0.181964,1.012428 c -0.99851,-0.163488 -2.003934,-0.288025 -3.012796,-0.373275 l 0.04983,-0.857732 0.01174,-0.207895 c 0.594971,0.05553 1.191503,0.125868 1.789693,0.210789 0.446955,0.06332 0.894909,0.135559 1.343524,0.215685 z m -3.332652,-0.443834 -0.009,0.224921 -0.03597,0.84293 c -0.919305,-0.07342 -1.842144,-0.114162 -2.765533,-0.121057 l 0.02972,-0.726518 0.01444,-0.357472 c 0.919276,0.0099 1.841445,0.0562 2.766739,0.137225 z m -2.961937,-0.138783 -0.0032,0.358696 -0.0067,0.725851 -0.08426,-2.23e-4 c -0.894675,-10e-4 -1.790027,0.02837 -2.684377,0.08959 l -0.03781,-0.820003 -0.01199,-0.259314 c 0.939531,-0.06811 1.88207,-0.100265 2.828278,-0.0946 z m -3.015032,0.107505 0.01703,0.246068 0.0581,0.83169 c -1.059064,0.07635 -2.116896,0.197765 -3.168945,0.36337 l -0.131323,-1.045171 c 0.333545,-0.05553 0.666973,-0.106953 1.000742,-0.153697 0.73943,-0.103391 1.480856,-0.184189 2.224402,-0.242283 z m -3.418457,0.429367 0.164375,1.037358 c -0.946435,0.153026 -1.888854,0.342558 -2.824163,0.568482 l -0.294698,-0.973922 c 0.981818,-0.249852 1.966424,-0.461196 2.954486,-0.631918 z m -3.144353,0.68111 0.32553,0.963459 c -0.848942,0.20923 -1.692201,0.448065 -2.527896,0.717726 L 27.691804,16.79869 c 0.839478,-0.277562 1.681518,-0.526747 2.525452,-0.746105 z m -2.710644,0.807316 0.352799,0.924395 c -0.801975,0.262429 -1.596043,0.553348 -2.381883,0.872312 l -0.339113,-0.922838 c 0.787403,-0.316405 1.577024,-0.608548 2.368197,-0.873869 z m 28.409882,-1.760649 c -0.372943,-0.171586 -0.74611,-0.336299 -1.121613,-0.495893 l 0.514622,-1.138856 C 54.394562,13.058453 53.471506,12.688739 52.5421,12.356197 l -0.408774,1.225553 c -0.171398,-0.05866 -0.342343,-0.116407 -0.513623,-0.172503 0.100954,-0.457747 0.16527,-0.899689 0.17885,-1.311138 0.247963,0.08325 0.496251,0.169386 0.743547,0.258088 l -0.408774,1.225553 c 0.893338,0.307057 1.780785,0.647723 2.661555,1.021556 l 0.514622,-1.138858 c 0.392415,0.174507 0.782944,0.355579 1.172246,0.543219 -0.214466,0.322416 -0.397432,0.696247 -0.565255,1.091559 z m 0.702478,-1.283983 -0.400653,-0.190867 0.520849,-1.048598 c -0.68011,-0.346978 -1.365343,-0.670728 -2.055912,-0.971998 l -0.406996,1.167237 c -0.819227,-0.33499 -1.644907,-0.64071 -2.475811,-0.917718 -0.01102,-0.604097 -0.144462,-1.12873 -0.447622,-1.51803 1.12016,0.366597 2.231304,0.788729 3.330429,1.268511 l -0.406996,1.167237 c 0.651504,0.266323 1.298893,0.550898 1.942059,0.853392 l 0.520849,-1.0486 c 0.304163,0.154585 0.607325,0.314514 0.908924,0.478224 -0.04198,0.0056 -0.08357,0.01364 -0.125201,0.02404 -0.359361,0.14891 -0.653063,0.408221 -0.903914,0.737202 z M 21.252414,8.9443001 22.150212,10.801885 c 0.373834,-0.18739 0.750556,-0.368797 1.130626,-0.54386 L 23.122796,9.792044 23.758499,9.31916 23.201041,8.0850367 C 22.539512,8.355366 21.889898,8.6418341 21.252414,8.9443272 Z m 1.852137,-1.0726379 -0.55246,-1.221771 C 21.525861,7.0571118 20.524561,7.501948 19.555759,7.9840679 19.311918,8.1054926 19.07019,8.2287986 18.8308,8.354671 l 0.657071,1.221214 c -0.708488,0.381735 -1.402842,0.78617 -2.083953,1.214647 l -0.675768,-1.238909 0.0078,-0.0043 C 17.412936,9.1301943 18.1123,8.732436 18.830693,8.3553756 L 19.487764,9.576589 C 19.721579,9.450377 19.956962,9.326734 20.194127,9.20587 21.14056,8.7226382 22.109694,8.2790253 23.104429,7.8723619 Z M 22.455935,6.4363225 21.719621,4.806219 c -0.669425,0.3007125 -2.405811,1.1266147 -3.076238,1.4631646 0.128103,0.4615297 0.38051,1.0057507 0.522073,1.4669473 L 18.171391,8.2739844 17.567629,6.9596191 c -0.669425,0.4215764 -1.01866,0.6334772 -1.652471,1.0915572 0.240057,0.4463951 0.471991,0.8745378 0.701253,1.2953347 0.913935,-0.562807 1.8607,-1.0871052 2.834956,-1.5716731 0.972586,-0.4839004 1.976445,-0.9302955 3.004568,-1.3385154 z m -4.940391,4.5598785 c 0.219914,0.40377 0.44261,0.815108 0.672651,1.243249 0.350128,0.04039 0.738204,0.09649 1.107919,0.144794 l 0.06589,-0.0404 -1.053608,-1.832546 C 18.04274,10.669 17.779312,10.830263 17.51744,10.994865 l -0.0022,0.0011 z m 0.792848,-0.484902 1.053608,1.832543 0.02527,-0.0148 c 0.753339,-0.456745 1.51814,-0.886112 2.290958,-1.286764 0.15681,-0.08113 0.313955,-0.161598 0.471991,-0.240393 L 21.252417,8.9443044 c -0.3203,0.1520271 -0.637595,0.3082826 -0.951885,0.4685426 -0.675324,0.345119 -1.339184,0.711049 -1.99214,1.098457 z m 6.798089,-4.7787914 0.409551,1.239132 c 0.935084,-0.3148479 1.883404,-0.5965303 2.843636,-0.844489 L 27.977713,4.9100539 C 27.006687,5.1532293 26.047899,5.4280112 25.106481,5.7325076 Z M 28.572015,6.072506 C 29.56263,5.8217639 30.564597,5.6063008 31.574361,5.4255621 l -0.192765,-1.23423 c -1.080095,0.1865262 -2.148386,0.4098902 -3.2001,0.6682014 z m 2.809581,-1.8811787 0.192765,1.2342348 C 31.940959,5.3598997 32.309108,5.299027 32.6776,5.2428198 L 32.482283,4.0143773 c -0.368376,0.054854 -0.734641,0.1136267 -1.100687,0.1769548 z m 1.063851,-0.4078869 c -0.08993,-0.5646985 -0.181412,-1.1460905 -0.283353,-1.806724 -0.950217,0.1296565 -1.572565,0.2417279 -2.522781,0.4439471 0.09182,0.6577375 0.121083,0.9511061 0.212905,1.6085105 -0.200993,0.036953 -0.736316,0.1568117 -0.937643,0.1930924 -0.182633,-0.5293068 -0.365596,-1.0114267 -0.547896,-1.5414009 -0.8338,0.1633767 -1.387479,0.3896344 -2.070148,0.5681481 0.164041,0.6212351 0.191419,0.9338555 0.355804,1.5544232 -0.164385,0.07345 -0.683897,0.2027751 -0.848274,0.2760064 -0.283571,-0.5753841 -0.456854,-0.8902296 -0.739764,-1.465724 -0.740759,0.213014 -1.140528,0.3545782 -1.844341,0.6413795 0.226259,0.6171167 0.412338,1.1558846 0.587407,1.6722819 1.372345,-0.4895764 2.787879,-0.9151597 4.233453,-1.2735219 1.442576,-0.3574719 2.915203,-0.6482788 4.404631,-0.8704183 z m -8.563295,2.3654122 c 0.140445,0.4155663 0.276116,0.822787 0.423022,1.2518198 0.400653,-0.1492436 0.804194,-0.2926999 1.210858,-0.4290328 L 25.106481,5.7325124 C 24.695144,5.8652759 24.28692,6.0044006 23.882152,6.1488574 Z M 30.65764,7.7149619 30.248748,5.9227064 c -0.602866,0.1274349 -1.201291,0.2678814 -1.794366,0.4207976 -0.34579,0.089363 -0.689683,0.182965 -1.031908,0.2802337 l 0.596531,1.8110652 C 28.328844,8.3383106 28.639909,8.2458276 28.951191,8.157573 29.516222,7.9973106 30.085375,7.8496269 30.65764,7.7149619 Z M 27.228716,6.6791624 c -0.963796,0.2802338 -1.91423,0.5937444 -2.847751,0.9417576 0.121411,0.3511274 0.251744,0.7201753 0.399092,1.1227193 l 1.048601,-0.2103431 0.247954,0.5633637 c 0.571933,-0.2122351 1.148992,-0.4101144 1.73038,-0.5949702 z m 3.020032,-0.756456 0.408892,1.7922555 c 0.501594,-0.118084 1.005414,-0.2262578 1.511465,-0.3240836 -0.04608,-0.1210845 -0.185861,-0.5172876 -0.22025,-0.6037627 0.292142,-0.1091814 0.62658,-0.2189115 0.918722,-0.3287567 l -0.153358,-0.984607 c -0.828133,0.1262092 -1.650584,0.2761179 -2.465471,0.4489545 z m 5.535694,-2.2871749 0.07637,1.2293389 c 1.057165,-0.085469 2.116226,-0.1324375 3.176179,-0.1418975 L 39.02305,3.4812805 c -1.082648,0.016356 -2.163527,0.068107 -3.238615,0.154251 z m 3.238614,-0.154251 0.01394,1.2416924 c 0.247628,-0.00216 0.49525,-0.00216 0.742986,-6.685e-4 0.336216,0.00323 0.673431,0.00887 1.010431,0.018919 L 40.77615,3.4856211 c -0.32175,-0.00671 -0.643492,-0.010066 -0.965016,-0.010066 -0.263096,-3.342e-4 -0.525523,0.00108 -0.788067,0.00563 z m 1.753083,0.00431 0.01427,1.2556038 c 1.053053,0.031608 2.106986,0.099715 3.160706,0.2041099 l 0.0732,-1.2858743 C 42.943442,3.5657333 41.859568,3.5080786 40.776135,3.4855965 Z m 3.248179,0.1738394 -0.07319,1.2858743 c 0.440167,0.043508 0.880219,0.093377 1.319935,0.1492425 L 45.31814,3.7890905 C 44.887433,3.7405743 44.456171,3.6970551 44.024358,3.6594324 Z m 1.302575,-0.1040647 0.06535,-1.8054993 c -0.966908,-0.1096773 -1.682074,-0.1987116 -2.67647,-0.2535786 -0.02746,0.5657003 -0.05466,0.994732 -0.08238,1.5599876 -0.145795,0 -0.695693,-0.027714 -0.84204,-0.027714 0,-0.5744914 -0.01364,-0.9846045 -0.01364,-1.5594308 -1.413973,-0.061208 -2.466356,-0.074455 -3.880327,-0.00667 0.009,0.5659235 0.01102,1.0016341 0.02029,1.5673343 -0.209233,0 -0.816222,0.04818 -1.026233,0.04818 -0.01804,-0.5470033 -0.06476,-1.0334631 -0.08237,-1.5808015 -0.976151,0.04096 -1.63233,0.1229785 -2.601469,0.2120125 0.03164,0.6602999 0.05434,1.2556044 0.07572,1.8357717 1.825094,-0.2016619 3.67466,-0.3034934 5.527797,-0.3016039 1.840777,0.00108 3.687012,0.1050595 5.515769,0.3126216 z m -11.035661,0.2226966 0.0455,1.2360154 c 0.50727,-0.058652 1.015431,-0.1081749 1.524043,-0.1492438 L 35.784398,3.635498 c -0.498814,0.040069 -0.996627,0.087362 -1.49322,0.1425672 z m 3.116974,1.2224372 0.01795,1.7430652 c 0.926287,-0.050193 1.857579,-0.067543 2.791328,-0.051187 0.690566,0.011743 1.38181,0.041961 2.074273,0.090921 l 0.0124,-1.7379453 c -0.842373,-0.053644 -1.684412,-0.083911 -2.52545,-0.089926 -0.790513,-0.00563 -1.581136,0.00887 -2.370425,0.045077 z m 4.895866,0.044837 -0.0124,1.7379453 c 0.644502,0.045077 1.289994,0.1066292 1.934822,0.1838554 l 0.09148,-0.694911 0.910151,0.013624 0.03472,-0.9568934 C 44.276685,5.2027515 43.28986,5.1081561 42.304027,5.0453875 Z m -7.958193,0.2026146 c 0.01378,0.3576936 0.02997,0.7271848 0.04849,1.1199358 0.273887,0.018249 0.637589,0.043183 0.911703,0.061433 -0.01349,0.1082826 -0.03464,0.3272001 -0.05199,0.4931374 0.720509,-0.079465 1.44514,-0.1394483 2.171992,-0.1788468 L 37.408134,5.0005459 C 36.385682,5.0472999 35.364801,5.129644 34.345807,5.2479498 Z M 48.412257,4.2406434 48.197122,5.5535626 c 0.974148,0.1903113 1.939831,0.4148988 2.893502,0.6707597 l 0.136331,0.037169 0.398425,-1.3195944 -0.0937,-0.023928 C 50.503217,4.6561653 49.462187,4.4305749 48.412257,4.2407105 Z m 3.213123,0.7012555 -0.398425,1.3195968 c 0.992728,0.2697722 1.974887,0.5751601 2.943692,0.9133767 L 54.601232,5.8211132 C 53.623529,5.4934337 52.630135,5.2003995 51.62538,4.941978 Z m 2.975852,0.8792108 -0.430585,1.3537627 c 0.353909,0.1233059 0.706034,0.2514108 1.056498,0.3836254 L 55.719948,6.2141962 C 55.34957,6.0779699 54.976294,5.9469821 54.601232,5.8211097 Z m 1.198847,0.1741725 0.58896,-1.6063968 C 55.65929,4.0424335 54.722654,3.724469 54.466237,3.6326534 c -0.222136,0.5593557 -0.43193,1.1269491 -0.653733,1.687528 0.669759,0.2084511 1.332281,0.4340427 1.987575,0.6751008 z M 52.979371,5.0700001 C 53.121937,4.4576678 53.199612,3.964196 53.344074,3.3497489 52.531748,3.0904383 52.034162,2.9547716 51.222173,2.7499954 51.049,3.3244868 50.895973,3.7963667 50.722799,4.3708595 50.485186,4.3163287 49.885543,4.1806607 49.648605,4.136812 49.785495,3.4979908 49.846372,3.1342881 49.983594,2.4953579 49.015793,2.2717697 48.403458,2.143339 47.417185,2.010566 c -0.102507,0.6441617 -0.192756,1.2202132 -0.280124,1.7811277 1.50134,0.2278143 2.990101,0.5274149 4.452376,0.8996896 0.465643,0.1186352 0.929066,0.2451751 1.389934,0.3786168 z M 47.101452,4.0226258 46.899231,5.3207422 c 0.434043,0.07067 0.866638,0.1483522 1.297891,0.2328228 L 48.412257,4.240647 C 47.976546,4.1617445 47.539276,4.0891782 47.101452,4.0226258 Z m 2.577755,2.0880709 -0.461194,1.7815712 c 0.477218,0.1198574 0.954557,0.2488512 1.431224,0.3867419 0.438825,0.1270947 0.876765,0.2622054 1.314361,0.4047715 L 52.517835,6.8786149 C 52.02503,6.7275511 51.529448,6.5843189 51.03041,6.4505441 50.582129,6.3300144 50.13161,6.2164967 49.679207,6.1107686 Z m 2.838628,0.7679182 -0.554237,1.8051664 c 0.52675,0.1721691 1.052382,0.3549113 1.576687,0.5492282 l 0.299706,-0.5981969 0.915158,0.2104545 0.391865,-1.0681873 C 54.283272,7.4516254 53.406175,7.1515815 52.517835,6.8786915 Z m -5.654888,-1.3278309 -0.156472,0.9906148 0.923391,0.2940348 -0.07854,0.6751008 c 0.555907,0.1150766 1.111478,0.2422839 1.666717,0.3817335 L 49.679241,6.1106967 C 48.746722,5.8921183 47.806855,5.7053692 46.862983,5.550784 Z m 11.546385,3.6225736 -0.890226,1.7896954 0.435042,0.206669 c 0.583952,0.281349 1.166235,0.577609 1.736607,0.8909 l 0.889009,-1.754418 C 60.171314,10.076012 59.758641,9.853649 59.341854,9.638409 59.03335,9.479483 58.722286,9.323895 58.409332,9.1734283 Z m 1.521591,3.0203684 c 0.127762,0.07168 0.255199,0.144459 0.381071,0.218023 l 0.05643,0.03216 c 0.347676,-0.03062 0.702586,-0.06411 1.025339,-0.08681 0.240054,-0.39898 0.471315,-0.779156 0.698136,-1.150539 -0.420247,-0.263991 -0.846501,-0.519519 -1.27742,-0.766588 z m 2.282721,-1.186494 0.752118,-1.225888 C 62.206082,9.29544 61.424917,8.8386961 60.626506,8.4105522 L 59.961756,9.700546 C 59.791478,9.609626 59.620415,9.519806 59.448469,9.430773 58.481893,8.9322935 57.490394,8.4724317 56.480187,8.0534146 56.691308,7.6076881 56.897534,7.186779 57.106434,6.7536291 c 1.03669,0.4253592 2.052454,0.8941238 3.042735,1.4058467 0.159929,0.082245 0.318963,0.1661613 0.477337,0.2510764 l -0.66475,1.2899938 c 0.766584,0.410446 1.51836,0.845823 2.251888,1.306686 z M 63.087519,9.581907 C 63.343712,9.1632243 63.604245,8.73486 63.875914,8.2824547 63.127584,7.7634969 62.730379,7.4859351 61.945765,7.0211762 61.699473,7.4591118 61.459306,7.959151 61.240392,8.3281965 L 60.419836,7.8446304 60.926212,6.4151884 C 60.25167,6.0671764 58.620119,5.2766658 57.927322,4.9656019 57.67714,5.5485529 57.440529,6.0573821 57.207707,6.543286 c 1.040698,0.4271409 2.058464,0.8969072 3.048077,1.4085187 0.9707,0.5015957 1.916576,1.0452595 2.831735,1.6301023 z M 56.3808,8.2647594 c -0.163708,0.349904 -0.330538,0.7177261 -0.503822,1.1216076 l 0.630696,0.557353 -0.273221,0.434708 c 0.426471,0.18931 0.856839,0.38396 1.284653,0.58462 L 58.409332,9.1733516 C 57.742472,8.8516824 57.065701,8.548855 56.3808,8.2648361 Z M 24.956344,14.465836 24.435829,13.329538 c 0.921838,-0.408554 1.85369,-0.778602 2.794782,-1.110142 v 0 c 0.173166,-0.06087 0.346673,-0.120198 0.519957,-0.178959 0.01253,0.407331 0.07379,0.850276 0.167498,1.314588 -1.004196,0.334768 -1.986239,0.698471 -2.961722,1.110811 z m 6.336666,-3.425697 c 0.38997,-0.08993 0.781048,-0.172948 1.173247,-0.250184 l 0.199324,1.340073 c 1.210533,-0.229263 2.430188,-0.398094 3.653517,-0.507272 l -0.07879,-1.375131 c 0.575714,-0.05265 1.152096,-0.09215 1.72937,-0.117977 -0.02303,0.07823 -0.0435,0.16026 -0.06118,0.244509 -0.01295,0.337551 -0.02303,0.720508 -0.02896,1.142976 -0.520848,0.02426 -1.041139,0.05931 -1.560426,0.10561 l -0.0788,-1.375131 c -1.264397,0.116082 -2.523566,0.296928 -3.774046,0.54233 l 0.199324,1.340072 c -0.258647,0.04898 -0.516734,0.101047 -0.774704,0.155254 -0.167842,-0.454854 -0.366607,-0.87988 -0.597877,-1.245141 z m 10.344425,-0.89468 c 0.677656,0.03628 1.355319,0.09081 2.031971,0.164045 l -0.07888,1.373573 c 1.189939,0.1252 2.377768,0.306612 3.561138,0.54511 l 0.192094,-1.33885 c 0.32174,0.06722 0.642931,0.138115 0.963786,0.213571 -0.209782,0.353021 -0.396863,0.772594 -0.558352,1.250818 -0.199098,-0.04352 -0.398207,-0.08547 -0.597533,-0.125542 l 0.192101,-1.338849 c -1.21999,-0.253634 -2.445882,-0.44706 -3.674325,-0.579831 l -0.07888,1.373573 c -0.614226,-0.06466 -1.228788,-0.11419 -1.843339,-0.148576 -0.0058,-0.354356 -0.01228,-0.687788 -0.01703,-0.987166 -0.02511,-0.141341 -0.05575,-0.275672 -0.09271,-0.401876 z m -21.319543,3.453185 c -0.218246,-0.394977 -0.431482,-0.784946 -0.63537,-1.166679 l -0.01254,-10e-4 c 0.341,-0.204444 0.685228,-0.40377 1.032573,-0.597864 l 0.02648,0.04952 0.613557,1.151879 c 0.73921,-0.394131 1.48654,-0.764514 2.241212,-1.110856 l -0.52466,-1.304642 c -0.426923,0.202217 -0.852173,0.412672 -1.273972,0.631028 -0.364038,0.188641 -0.72496,0.382959 -1.082654,0.582951 l 0.02648,0.04951 0.613557,1.151879 c -0.343557,0.182965 -0.685226,0.371272 -1.024668,0.564365 z m 3.460198,-1.763875 c 0.968805,-0.438493 1.94862,-0.837922 2.938684,-1.197176 l -0.431595,-1.293776 -0.02179,-0.06655 c -0.396204,0.145124 -0.789621,0.296816 -1.180816,0.455185 l -0.0024,0.0011 0.31418,0.971363 -0.683339,0.299712 -0.557124,-0.882997 -0.01428,0.0067 c -0.299379,0.130543 -0.597757,0.264988 -0.895242,0.404104 l 0.534097,1.302569 z m 9.273346,-4.3671223 0.518621,0.9543341 0.751783,-0.096828 0.02872,-1.0552766 0.02529,-0.00336 0.413225,-0.054985 v 3.343e-4 l 0.384627,-0.045735 0.0042,-6.674e-4 0.009,-9.191e-4 0.0032,-6.674e-4 0.01228,-0.00108 0.115747,-0.012534 c 0.239499,-0.026265 0.47889,-0.050193 0.718731,-0.072348 l 0.09237,1.3957207 c 0.979597,-0.09938 1.961981,-0.159927 2.945585,-0.1826308 L 39.061605,7.11108 39.059205,6.9221059 c -1.0121,0.012953 -2.020293,0.065003 -3.022261,0.1558087 l 0.09237,1.3957207 c -1.32683,0.1343319 -2.648425,0.3391093 -3.961008,0.6126654 L 31.9411,7.675779 31.940433,7.673622 c -0.865779,0.173837 -1.72518,0.377614 -2.576351,0.6104367 l 0.379845,1.3881523 c 0.803929,-0.221139 1.61213,-0.417125 2.424237,-0.5858462 l -0.227153,-1.4105222 -6.69e-4,-0.00216 c 0.369053,-0.073786 0.738872,-0.1432335 1.109811,-0.2060019 z m 12.174509,-0.1312105 0.131211,0.996292 0.752785,0.076351 0.400655,-0.8621854 0.02496,0.00431 c 0.440384,0.079801 0.880435,0.1671618 1.319928,0.262094 L 47.6428,9.0942307 c 0.851838,0.1817403 1.700105,0.3946443 2.54404,0.6384863 l 0.326867,-1.1940591 0.0141,-0.052422 C 49.639472,8.2301514 48.747909,8.0064517 47.855453,7.8133594 L 47.642775,9.0942263 C 46.353113,8.8188309 45.056221,8.614721 43.755877,8.4797216 l 0.07219,-1.2827565 0.0024,-0.040069 C 42.822832,7.0455946 41.816742,6.9735974 40.81444,6.9405423 l 0.0024,0.2025547 0.01321,1.14954 c 0.976149,0.0237 1.952182,0.086139 2.926438,0.1870822 l 0.07219,-1.2827577 0.0024,-0.040069 c 0.465319,0.051751 0.930626,0.11141 1.395944,0.1798485 z m 9.287594,2.5228908 -0.205117,0.845157 0.596639,0.273113 0.504155,-0.70593 0.0712,0.03061 c 0.371939,0.161486 0.749003,0.327423 1.130067,0.499369 l -0.547002,1.179479 c 0.617342,0.297263 1.230674,0.612109 1.839219,0.946433 l 0.62146,-1.217099 c -0.223029,-0.112302 -0.447393,-0.222705 -0.671317,-0.330548 -0.415787,-0.200326 -0.831355,-0.392529 -1.24236,-0.578276 l -0.547001,1.179478 C 54.3823,11.17202 52.670509,10.498479 50.937567,9.957707 l -0.03847,-0.02426 C 50.75686,9.879477 50.61775,9.841627 50.481744,9.818586 l -0.294923,-0.08614 0.326866,-1.1940574 0.0141,-0.052422 0.05675,0.016811 C 51.89912,8.883506 53.210592,9.335911 54.5135,9.85932 Z m 3.608099,3.189423 0.129329,0.07257 c 0.288354,0.0946 0.573486,0.269773 0.834469,0.482676 l 0.058,0.03439 0.01512,0.0089 c 0.20567,-0.392751 0.405438,-0.779159 0.592192,-1.153102 l 0.210676,-0.01536 c -0.4031,-0.229369 -0.814547,-0.450174 -1.229329,-0.662854 l -0.610449,1.232565 z m -17.307661,-6.1085145 0.0024,0.2025523 0.01321,1.1495401 c -0.301267,-0.00671 -0.602542,-0.011144 -0.903474,-0.011144 -0.283571,0 -0.566924,0.00323 -0.849944,0.010066 l -0.01321,-1.1799233 -0.0024,-0.1889753 c 0.383853,-0.00431 0.76848,-0.00323 1.153665,0.00336 0.199993,0.00323 0.399653,0.00887 0.599978,0.014905 z M 29.521013,9.734681 29.337714,9.786771 c -0.128103,0.0067 -0.260651,0.02738 -0.396874,0.06333 -0.139451,0.04363 -0.263762,0.09971 -0.376054,0.167272 -0.619009,0.191423 -1.23568,0.398094 -1.848012,0.620233 L 26.285179,9.34383 26.263379,9.27728 C 27.169081,8.9440698 28.087461,8.6453606 29.014308,8.382265 L 29.149973,8.34409 Z m 26.553179,10.107814 -0.01828,0.03027 h 5.863001 v 7.453711 c 0.367933,-1.699773 1.424774,-3.293481 3.963353,-3.501153 0.798528,-0.0621 1.604176,0.371716 2.11712,0.917717 0.07804,0.08803 1.864816,2.47459 0.145462,3.452297 0.412674,0.61834 0.482336,1.282759 0.916495,1.809283 -0.119643,-0.06844 -0.469433,-0.610217 -0.58896,-0.678329 0.101151,0.357138 0.111277,0.550231 0.290808,0.968802 -0.377284,-0.547337 -0.572601,-1.364446 -0.913607,-1.990021 -0.775148,0.101287 -1.775781,-1.055165 -1.904215,-1.533169 -0.167163,-0.621122 -0.161154,-1.33729 -0.481118,-1.149874 -1.850908,0.739429 -2.291627,2.197249 -2.271034,3.535765 -0.144903,1.205743 0.681336,2.66646 1.683635,4.136857 v -4.494554 c 0,-0.192427 0.121194,-0.349571 0.268213,-0.349571 h 0.917386 c 0.147241,0 0.268774,0.157144 0.268774,0.349571 v 6.560028 c 0.946092,1.360887 1.710121,2.62528 1.600384,3.57995 0,0.1577 0.188974,2.289064 -0.03941,2.65889 -0.04799,1.016991 -1.231674,2.591558 -1.331061,2.507645 -0.02646,-0.481118 0.03348,-4.637786 0.01363,-4.945953 -0.02044,-0.168497 -0.06209,-0.339777 -0.121751,-0.515175 0.0032,-0.02149 0.0067,-0.03662 0.0099,-0.04452 -0.354912,-0.912711 -0.99529,-1.713684 -1.585919,-2.53647 v -2.22e-4 c -1.034136,-1.420986 -2.279609,-3.121313 -2.95794,-5.287399 v 11.422735 c 0.043,3.832692 -0.101839,7.169803 -0.808201,10.058846 -0.555239,2.225406 -1.326831,4.190499 -2.274934,5.913976 2.120349,0.562138 4.232125,1.117379 6.092826,1.455929 0.484231,0.08637 0.940751,0.154587 1.384257,0.214461 2.203368,0.273224 3.888558,0.100047 4.540404,-0.965017 -0.163159,2.543369 0.732193,7.100019 -0.489024,7.630109 -1.176359,0.347006 -2.549715,0.319521 -4.033017,0.119534 v 0.705034 c 0,0.192538 -0.121534,0.350237 -0.268771,0.350237 H 65.14521 c -0.147015,0 -0.268212,-0.157699 -0.268212,-0.350237 V 66.389279 C 59.767884,65.431497 53.759311,63.294124 49.98505,67.28897 c 0.0798,-0.347676 0.190527,-0.682338 0.327417,-1.006309 -3.115296,1.488655 -6.596305,2.154073 -10.118273,2.143605 -4.400176,0.01103 -8.106661,-0.813542 -11.160532,-2.372978 0.184527,0.394643 0.330322,0.805421 0.428699,1.235682 -3.960456,-4.191723 -10.380368,-1.630993 -15.640277,-0.767252 -0.10561,0.70571 -0.221805,1.46105 -0.347901,2.288507 -0.329759,0 -0.659074,0 -0.988723,0 0.14228,-0.76692 0.271937,-1.478298 0.389684,-2.151512 -1.390935,0.170611 -2.679368,0.177289 -3.7920717,-0.150796 -1.2212126,-0.530088 -0.3258654,-5.08674 -0.4886861,-7.630109 0.7060399,1.153659 2.6245018,1.261835 5.1006498,0.888337 0.05552,-1.282092 0.05932,-2.662564 0.01254,-4.291109 0.158705,0.105719 0.673878,0.109517 0.895351,-0.131768 0.03128,1.655255 0.01959,3.023819 -0.03507,4.276195 1.99069,-0.365261 4.264953,-0.975145 6.5282,-1.575458 l 0.0023,0.0023 c -0.667514,-1.274377 -1.233103,-2.653626 -1.698195,-4.131257 -1.000632,-3.390084 -1.256494,-7.316487 -1.403177,-11.71577 -0.02994,-7.442356 -0.05932,-14.884825 -0.08925,-22.326849 h 5.547605 l -0.0151,-0.05742 c 0.976694,-0.471656 1.970422,-0.896907 2.976846,-1.275747 l 0.496477,1.10636 0.159034,-0.02527 -0.468205,-1.151432 c 0.94298,-0.349237 1.897644,-0.659076 2.860438,-0.928738 l 0.307943,1.145758 c -1.090326,0.337215 -2.168309,0.732527 -3.230147,1.186491 h 0.600311 c 4.041923,-1.647354 8.311551,-2.446212 12.563819,-2.4392 4.289211,0.0067 8.56196,0.835362 12.565932,2.4392 h 0.608324 c -0.106605,-0.04508 -0.213573,-0.08892 -0.320523,-0.13278 l 0.584512,-1.141083 c 0.992836,0.372831 1.970429,0.787395 2.929217,1.243585 z m -6.896913,0.03027 c -6.4139,-2.111109 -13.192844,-2.278939 -18.854626,0 z M 29.925447,18.63964 29.658787,17.487206 c 0.838592,-0.230377 1.684413,-0.429702 2.534249,-0.599756 l 0.264648,1.090554 c -0.850161,0.186527 -1.694312,0.406998 -2.532237,0.661636 z m 2.690387,-0.696358 -0.217462,-1.096901 c 0.967911,-0.187971 1.941832,-0.33755 2.918534,-0.448842 l 0.170276,1.06062 c -0.961233,0.119533 -1.919238,0.281346 -2.871348,0.485123 z m 3.032946,-0.504378 -0.134114,-1.063511 c 1.00831,-0.10941 2.018741,-0.178849 3.030167,-0.207563 l -0.02679,1.051827 c -0.957786,0.03217 -1.914907,0.104724 -2.869237,0.219247 z m 3.030382,-0.224366 0.0657,-1.052382 c 0.318962,-0.0067 0.637597,-0.01114 0.956225,-0.0099 0.454632,9.17e-4 0.908589,0.0099 1.361887,0.02671 l -0.02371,1.050601 c -0.443831,-0.01836 -0.888005,-0.02782 -1.332505,-0.02872 -0.342667,-3.34e-4 -0.685226,0.0046 -1.027567,0.01413 z m 2.52323,0.02149 0.05868,-1.0496 c 0.999738,0.04196 1.996923,0.123429 2.989091,0.242952 l -0.144782,1.065068 c -0.963463,-0.127435 -1.931933,-0.213569 -2.902958,-0.258421 z m 3.061985,0.2799 0.1833,-1.062622 c 0.983386,0.123974 1.961649,0.285577 2.931336,0.484346 l -0.24317,1.097234 c -0.950217,-0.214242 -1.908337,-0.38719 -2.871466,-0.518962 z m 3.030166,0.555461 0.279455,-1.093116 c 0.867306,0.18241 1.727593,0.394644 2.579648,0.636371 L 49.831238,18.75851 C 48.993647,18.496635 48.1476,18.267592 47.294543,18.071385 Z m 2.691615,0.735421 0.358692,-1.137297 c 0.88077,0.255194 1.752191,0.541325 2.611818,0.859399 l -0.54701,1.149876 c -0.797517,-0.321748 -1.606061,-0.612334 -2.4235,-0.871978 z m 13.179597,51.047011 c 0.403216,1.434789 0.199659,4.261732 -0.515173,6.775498 -0.531309,1.68619 -1.151769,1.691199 -3.326091,1.824641 -12.121431,0.496251 -26.986334,0.607658 -39.101866,0 -2.19814,-0.185754 -3.08503,-0.02964 -3.325979,-1.388381 -0.714608,-2.513432 -0.923173,-5.776969 -0.519959,-7.211758 14.440547,1.654363 31.893004,1.423988 46.789068,0 z m -40.332874,2.681263 c 0.0099,0.713272 0.02112,1.427436 0.0318,2.140157 0.0099,0.713272 0.02111,1.427219 0.0323,2.140155 -0.37294,-0.009 -0.739873,-0.02044 -1.106693,-0.0318 -0.0067,-0.482678 -0.01458,-0.965014 -0.02149,-1.447468 -0.0078,-0.482678 -0.01446,-0.965576 -0.02181,-1.448588 -0.07001,0.480116 -0.13945,0.960901 -0.20311,1.441016 -0.06377,0.48056 -0.133446,0.960675 -0.197767,1.44146 -0.259979,-0.0075 -0.520292,-0.01544 -0.774819,-0.02303 -0.09025,-0.475108 -0.174172,-0.951769 -0.258086,-1.425993 -0.08357,-0.475657 -0.167831,-0.951766 -0.252411,-1.427769 0.0067,0.473547 0.01458,0.947319 0.02149,1.419875 0.0067,0.473212 0.01414,0.94676 0.02113,1.419981 -0.37294,-0.01126 -0.73976,-0.02237 -1.10636,-0.0328 -0.01114,-0.718622 -0.02149,-1.437569 -0.03216,-2.156183 -0.01114,-0.718063 -0.02149,-1.43801 -0.03228,-2.156633 0.544556,0.02178 1.088776,0.04232 1.633221,0.06276 0.05143,0.261209 0.107612,0.570046 0.167826,0.921836 0.06254,0.365262 0.129099,0.731309 0.193761,1.096906 0.0423,-0.332876 0.08458,-0.666313 0.127095,-0.99852 0.04196,-0.332435 0.08492,-0.664976 0.133214,-0.996516 0.544443,0.02079 1.094672,0.04165 1.645128,0.06118 z m 2.047782,0.06086 c 0.01102,0.71172 0.02144,1.423096 0.0318,2.134148 0.01103,0.711384 0.02144,1.423429 0.03214,2.133921 -0.426136,-0.01102 -0.852389,-0.01995 -1.272625,-0.03005 -0.0099,-0.712043 -0.02111,-1.425324 -0.0318,-2.137928 -0.01102,-0.712052 -0.02144,-1.425323 -0.03214,-2.138595 0.420462,0.01227 0.846714,0.02529 1.272626,0.03847 z m 3.692352,1.660934 c -0.426244,-0.009 -0.852162,-0.01768 -1.272073,-0.02579 -0.0024,-0.128771 -0.0032,-0.257418 -0.0058,-0.386856 -0.0032,-0.243505 -0.01321,-0.398758 -0.03666,-0.458306 -0.02546,-0.0641 -0.0848,-0.09404 -0.172831,-0.0956 -0.07721,-8.35e-4 -0.127095,0.02429 -0.153032,0.07571 -0.02578,0.05243 -0.03847,0.186744 -0.03532,0.403765 0.0058,0.340781 0.0099,0.680894 0.01544,1.021224 0.0058,0.340112 0.0099,0.680443 0.0151,1.019997 0.0024,0.189868 0.01945,0.31574 0.047,0.377615 0.02712,0.05951 0.07854,0.09239 0.161262,0.09394 0.0946,8.34e-4 0.150805,-0.03272 0.181629,-0.09939 0.03198,-0.06878 0.05018,-0.200551 0.04741,-0.398983 -0.0024,-0.167833 -0.0058,-0.335106 -0.0075,-0.503272 -0.08272,-8.34e-4 -0.165712,-0.0033 -0.248288,-0.0042 -0.0032,-0.215126 -0.0067,-0.43092 -0.0099,-0.645829 0.491132,0.009 0.982376,0.01928 1.479186,0.02904 0.0058,0.37951 0.01126,0.759345 0.01703,1.13919 0.0058,0.379176 0.0115,0.759013 0.01712,1.138189 -0.266326,-0.0042 -0.532536,-0.009 -0.798862,-0.01377 -0.04247,-0.101609 -0.08581,-0.204441 -0.122637,-0.306392 -0.0808,0.130326 -0.191538,0.227154 -0.321192,0.291259 -0.12877,0.06335 -0.282352,0.0936 -0.459641,0.09081 -0.213013,-0.0032 -0.415452,-0.0514 -0.600086,-0.145796 -0.184525,-0.0946 -0.328428,-0.210342 -0.425252,-0.345673 -0.09594,-0.134781 -0.164375,-0.277008 -0.189533,-0.424024 -0.02564,-0.147357 -0.04107,-0.367599 -0.0455,-0.660969 -0.0032,-0.211011 -0.0067,-0.42213 -0.009,-0.632807 -0.0032,-0.211344 -0.0067,-0.422137 -0.0099,-0.633817 -0.0067,-0.406996 0.01644,-0.701252 0.06377,-0.884215 0.04732,-0.182966 0.1902,-0.349238 0.424357,-0.495033 0.234382,-0.145788 0.540999,-0.216687 0.913823,-0.208223 0.372274,0.0075 0.680894,0.08339 0.925961,0.220801 0.249514,0.140121 0.410778,0.300716 0.486458,0.483681 0.07737,0.186413 0.119295,0.45051 0.124315,0.800304 8.35e-4,0.06118 0.0024,0.12242 0.0032,0.183967 z m 3.609671,-1.505122 c 0.0067,0.471987 0.0141,0.94354 0.02111,1.415192 0.0067,0.47166 0.01376,0.944206 0.02103,1.415534 0.0042,0.321189 -0.0032,0.546782 -0.02496,0.675767 -0.0217,0.130326 -0.09148,0.26343 -0.207229,0.39809 -0.116753,0.136339 -0.268439,0.238506 -0.462755,0.306726 -0.194316,0.06811 -0.419016,0.100932 -0.684892,0.09805 -0.289696,-0.0024 -0.545221,-0.04632 -0.770705,-0.134114 -0.220576,-0.08603 -0.388409,-0.199325 -0.502262,-0.335656 -0.11486,-0.136555 -0.178625,-0.280682 -0.201327,-0.429926 -0.02303,-0.150471 -0.0368,-0.464983 -0.04408,-0.94298 -0.0058,-0.419241 -0.0124,-0.837922 -0.01871,-1.256832 -0.0067,-0.419015 -0.01254,-0.838584 -0.01894,-1.257825 0.420242,0.009 0.840478,0.01736 1.266287,0.02429 0.0075,0.530306 0.0161,1.060395 0.02404,1.590368 0.0075,0.530315 0.01578,1.060621 0.02397,1.59026 0.0024,0.18486 0.01678,0.303494 0.04074,0.354912 0.02429,0.05142 0.07254,0.07888 0.137222,0.07954 0.07705,5.58e-4 0.129657,-0.02712 0.152357,-0.08369 0.02271,-0.05643 0.0328,-0.190869 0.02972,-0.401212 -0.0075,-0.520289 -0.01544,-1.041698 -0.02337,-1.562548 -0.0075,-0.520849 -0.01544,-1.041698 -0.02337,-1.563215 0.420243,0.0067 0.840145,0.01254 1.266065,0.01929 z m 0.757452,0.01103 c 0.704039,0.0099 1.408188,0.01544 2.11211,0.02029 0.0042,0.281009 0.009,0.562468 0.01255,0.844152 -0.283904,-8.34e-4 -0.568151,-0.0042 -0.846155,-0.0058 0.0042,0.269105 0.0075,0.538544 0.01199,0.80765 0.260641,8.35e-4 0.520849,0.0033 0.787165,0.0042 0.0042,0.267436 0.0075,0.53443 0.01199,0.800974 -0.266208,-8.36e-4 -0.526524,-0.0024 -0.786723,-0.0042 0.0042,0.310734 0.009,0.620572 0.01376,0.930628 0.30761,8.35e-4 0.615562,0.0032 0.929072,0.0042 0.0042,0.281125 0.0075,0.563142 0.0124,0.844268 -0.73353,-0.0033 -1.467285,-0.0067 -2.194805,-0.01494 -0.0099,-0.704707 -0.02111,-1.411075 -0.03147,-2.115892 -0.01102,-0.704373 -0.02111,-1.409857 -0.0318,-2.115566 z m 4.088224,0.03405 c 0.0075,0.563802 0.01669,1.126947 0.02529,1.689756 0.0075,0.562802 0.01669,1.125611 0.02511,1.688421 0.254641,8.33e-4 0.508938,0.0024 0.763135,8.33e-4 0.0042,0.280792 0.0075,0.561582 0.0124,0.842373 -0.679891,-8.33e-4 -1.354658,-0.0032 -2.0292,-0.0067 -0.0099,-0.703482 -0.02111,-1.407963 -0.03147,-2.111776 -0.0099,-0.703816 -0.02111,-1.407631 -0.03164,-2.112445 0.420245,0.0032 0.84048,0.0058 1.266399,0.009 z m 2.419053,0.0024 c 0.426145,0 0.852388,0 1.277975,-5.61e-4 0.343227,0 0.610437,0.02111 0.799746,0.06743 0.184191,0.04515 0.321416,0.11207 0.417013,0.200101 0.09627,0.08771 0.159927,0.195878 0.193982,0.319519 0.03439,0.12621 0.05809,0.319857 0.06186,0.584621 0.0024,0.12242 0.0032,0.244733 0.0058,0.366599 0.0042,0.268102 -0.03064,0.46398 -0.09148,0.587959 -0.05985,0.123088 -0.174727,0.219917 -0.34478,0.286466 -0.170392,0.06719 -0.394977,0.102287 -0.67288,0.103829 -0.112297,8.34e-4 -0.2247,0 -0.33699,-3.34e-4 0.0042,0.284247 0.0075,0.567484 0.01267,0.850837 0.0042,0.28357 0.009,0.566592 0.01295,0.850496 -0.426254,6.66e-4 -0.852173,6.66e-4 -1.272299,8.33e-4 -0.0099,-0.702253 -0.02079,-1.406066 -0.03131,-2.108661 -0.01103,-0.702922 -0.02111,-1.406069 -0.0318,-2.109658 z m 1.282651,0.71928 c 0.0058,0.358693 0.01102,0.716835 0.0161,1.07486 0.03598,8.35e-4 0.06502,0.0033 0.08892,0.0024 0.118084,0 0.199441,-0.02679 0.241394,-0.07513 0.04449,-0.05108 0.06878,-0.152024 0.06652,-0.308837 -8.34e-4,-0.115185 -0.0032,-0.230928 -0.0058,-0.347344 -0.0024,-0.143232 -0.03439,-0.236276 -0.08715,-0.281348 -0.04884,-0.04173 -0.160478,-0.06476 -0.320522,-0.06476 z m 2.071484,-0.731527 c 0.703815,-0.0058 1.407629,-0.0099 2.11211,-0.01612 0.0042,0.280792 0.0075,0.561584 0.01228,0.842041 -0.283905,0.0024 -0.562143,0.0042 -0.839811,0.0067 0.0032,0.268771 0.0075,0.536875 0.01199,0.805313 0.260308,-0.0024 0.520516,-0.0032 0.786834,-0.0058 0.0032,0.266878 0.0075,0.533095 0.01199,0.799637 -0.266209,0.0024 -0.526743,0.0042 -0.787059,0.0058 0.0042,0.309395 0.0099,0.618566 0.01394,0.927737 0.307836,-0.0024 0.615113,-0.0032 0.928739,-0.0075 0.0042,0.280675 0.0075,0.561465 0.01254,0.842257 -0.733088,0.0067 -1.466618,0.01254 -2.200371,0.01736 -0.0099,-0.702254 -0.02112,-1.405734 -0.03164,-2.107654 -0.0099,-0.702595 -0.02079,-1.405742 -0.03146,-2.108662 z m 2.821601,-0.02613 c 0.295256,-0.0042 0.597199,-0.0075 0.898799,-0.0124 0.597199,-0.0075 1.000072,0.0058 1.212978,0.04232 0.213573,0.03697 0.384852,0.139117 0.519622,0.299712 0.136227,0.162815 0.207229,0.423023 0.212572,0.782051 0.0058,0.328426 -0.03907,0.549228 -0.131878,0.663082 -0.09271,0.114297 -0.275341,0.185192 -0.55301,0.210117 0.254967,0.05108 0.42369,0.119856 0.511717,0.21046 0.08547,0.08737 0.142015,0.171279 0.163384,0.246066 0.02178,0.07478 0.03405,0.283573 0.03915,0.624019 0.0024,0.186078 0.0058,0.371604 0.0075,0.557459 0.0032,0.185418 0.0058,0.370938 0.009,0.555798 -0.396539,0.0058 -0.786842,0.01103 -1.176694,0.01645 -0.0032,-0.234158 -0.0067,-0.467871 -0.01103,-0.701586 -0.0032,-0.233497 -0.0067,-0.467319 -0.0099,-0.702037 -0.0032,-0.225258 -0.02371,-0.365261 -0.0657,-0.418908 -0.04165,-0.05301 -0.148909,-0.0782 -0.320522,-0.07637 0.0042,0.317409 0.0099,0.63415 0.01461,0.951777 0.0042,0.316741 0.009,0.634141 0.01378,0.951442 -0.425587,0.0067 -0.851389,0.0124 -1.271632,0.0171 -0.0099,-0.702261 -0.02079,-1.406074 -0.03131,-2.108103 -0.01103,-0.70248 -0.02111,-1.405742 -0.03148,-2.108554 z m 1.282424,0.70192 c 0.0042,0.31296 0.009,0.625578 0.01377,0.938864 0.141681,-0.0024 0.236944,-0.01928 0.295039,-0.05501 0.05301,-0.03247 0.08048,-0.14512 0.07788,-0.331207 -8.36e-4,-0.07671 -0.0024,-0.153917 -0.0032,-0.231595 -0.0024,-0.134672 -0.02837,-0.220476 -0.08715,-0.262761 -0.05451,-0.03907 -0.154585,-0.05969 -0.296148,-0.05835 z m 2.295635,-0.756567 c 0.703588,-0.01444 1.407403,-0.02931 2.110884,-0.04349 0.0042,0.281684 0.009,0.56281 0.01255,0.843934 -0.283572,0.0058 -0.561475,0.01103 -0.839478,0.01703 0.0042,0.269105 0.0075,0.537209 0.01199,0.806315 0.260642,-0.0058 0.520181,-0.0099 0.7865,-0.01544 0.0033,0.266885 0.0075,0.534429 0.01199,0.800421 -0.266316,0.0058 -0.526298,0.0099 -0.786499,0.01577 0.0042,0.30939 0.0099,0.619228 0.01394,0.929066 0.307167,-0.0067 0.614776,-0.0124 0.928397,-0.01836 0.0042,0.281459 0.009,0.562142 0.01254,0.843934 -0.733411,0.01364 -1.466608,0.02738 -2.199803,0.04098 -0.01103,-0.702479 -0.02112,-1.406628 -0.0318,-2.109549 -0.0099,-0.703146 -0.02079,-1.406959 -0.03129,-2.110558 z m 4.091781,-0.09081 c 0.01102,0.704709 0.02111,1.409858 0.0318,2.113673 0.0099,0.704481 0.02079,1.409522 0.03147,2.113671 -0.425801,0.0099 -0.851054,0.02111 -1.270963,0.0303 -0.01102,-0.703479 -0.02111,-1.407628 -0.03197,-2.111776 -0.0099,-0.703814 -0.02079,-1.408296 -0.03148,-2.112444 0.419909,-0.0099 0.845497,-0.02169 1.271073,-0.0334 z m 0.769145,-0.02044 c 0.295591,-0.0075 0.59174,-0.01578 0.893006,-0.02371 0.597199,-0.0161 0.999522,-0.0075 1.212428,0.02496 0.213565,0.03313 0.388299,0.128989 0.525298,0.290923 0.133446,0.158034 0.207563,0.42113 0.212906,0.781716 0.0042,0.329312 -0.03941,0.552342 -0.13222,0.668424 -0.09305,0.115855 -0.281017,0.190644 -0.552685,0.221135 0.249189,0.04708 0.420802,0.115855 0.505716,0.201664 0.08871,0.08925 0.142232,0.170944 0.163376,0.24473 0.02212,0.07612 0.04007,0.284356 0.04515,0.625353 0.0024,0.18709 0.0058,0.373502 0.0075,0.55958 0.0032,0.186864 0.0058,0.372942 0.009,0.559028 -0.396196,0.0124 -0.786498,0.0237 -1.176693,0.03472 -0.0033,-0.234715 -0.0067,-0.468765 -0.0099,-0.704148 -0.0033,-0.234716 -0.0067,-0.468764 -0.01103,-0.703815 -0.0032,-0.22682 -0.03131,-0.365263 -0.07105,-0.419575 -0.03815,-0.05175 -0.149243,-0.07722 -0.320522,-0.07286 0.0042,0.318294 0.009,0.636706 0.01427,0.954667 0.0042,0.318969 0.0099,0.636261 0.0141,0.954889 -0.425921,0.01103 -0.845488,0.02111 -1.265614,0.03164 -0.0099,-0.704482 -0.02111,-1.40985 -0.03164,-2.114665 -0.0099,-0.704483 -0.02111,-1.409857 -0.03146,-2.114565 z m 1.276082,0.688014 c 0.0042,0.313845 0.0099,0.627799 0.0141,0.941643 0.142008,-0.0032 0.241728,-0.02462 0.294698,-0.05801 0.05777,-0.0363 0.0867,-0.147348 0.08393,-0.334095 -8.34e-4,-0.07737 -0.0024,-0.154585 -0.0032,-0.232161 -0.0024,-0.135109 -0.03348,-0.221804 -0.08747,-0.262536 -0.05367,-0.04065 -0.154586,-0.05935 -0.30216,-0.05484 z m 4.482858,-0.86819 c 0.128772,0.702586 0.26343,1.407295 0.392198,2.109214 0.128648,0.702586 0.263656,1.406735 0.398424,2.108663 -0.431587,0.01612 -0.863182,0.03164 -1.29511,0.04483 -0.02704,-0.25308 -0.05451,-0.505717 -0.08205,-0.759021 -0.153584,0.0042 -0.307502,0.009 -0.455519,0.01362 -0.01961,0.2552 -0.03973,0.509163 -0.05933,0.764031 -0.43749,0.01295 -0.875429,0.02578 -1.307016,0.03915 0.09594,-0.709272 0.191863,-1.419431 0.28747,-2.128922 0.0956,-0.709489 0.192088,-1.419647 0.288018,-2.12969 0.608886,-0.02029 1.217653,-0.03982 1.832881,-0.06186 z m -0.633474,2.754155 c -0.03313,-0.239838 -0.07286,-0.507944 -0.106605,-0.804869 -0.03372,-0.295591 -0.07412,-0.622122 -0.10917,-0.976033 -0.05901,0.409442 -0.106965,0.764355 -0.137557,1.062841 -0.03096,0.298152 -0.06335,0.542552 -0.0722,0.730966 0.142341,-0.0042 0.283572,-0.009 0.425579,-0.01295 z M 16.887186,69.427032 c 2.599793,-2.493174 2.704522,-3.498257 2.820266,-3.745883 2.420056,-0.709267 8.085292,-0.525634 9.693915,2.133144 -0.161814,0.517736 -1.117706,1.701108 -2.203592,2.46168 -3.58473,-0.05583 -7.339855,-0.520181 -10.310589,-0.848941 z m 43.586286,-8.879919 -0.564361,3.498257 -0.871313,-0.140452 0.303162,-1.878283 c 0.0435,-0.271332 0.06335,-0.435934 0.05951,-0.49247 -0.0042,-0.05675 -0.03272,-0.104389 -0.0867,-0.141897 -0.05366,-0.03728 -0.181078,-0.07235 -0.382407,-0.104833 l -0.08635,-0.0138 0.06551,-0.405993 c 0.436378,-0.02214 0.786509,-0.157148 1.049937,-0.403214 z m -0.07445,2.624389 0.871087,0.140674 c -0.02663,0.163489 -0.04107,0.267213 -0.04299,0.309838 -0.0024,0.04352 0.009,0.08258 0.0363,0.116407 0.02613,0.03372 0.06652,0.05554 0.120525,0.06401 0.04475,0.0067 0.08391,-5.55e-4 0.117976,-0.02337 0.03313,-0.02271 0.05551,-0.05453 0.06619,-0.09738 0.01103,-0.04295 0.02629,-0.129656 0.04741,-0.259978 l 0.0896,-0.556575 c -0.0581,0.08593 -0.134441,0.144569 -0.228147,0.177068 -0.09427,0.03249 -0.206003,0.03874 -0.334103,0.01792 -0.160262,-0.02581 -0.29459,-0.09203 -0.402883,-0.198101 -0.109061,-0.105958 -0.169718,-0.222363 -0.183516,-0.348568 -0.01363,-0.126209 -0.0042,-0.29281 0.02931,-0.499147 l 0.04483,-0.278789 c 0.03973,-0.245512 0.07821,-0.425916 0.117641,-0.541993 0.03847,-0.117413 0.106605,-0.219582 0.203223,-0.307615 0.09737,-0.0887 0.221469,-0.149576 0.373492,-0.183297 0.151364,-0.03317 0.321749,-0.03407 0.51039,-0.0032 0.233823,0.0375 0.420244,0.100943 0.559354,0.189866 0.139119,0.08903 0.240726,0.200994 0.302828,0.336326 0.06276,0.135001 0.0896,0.270108 0.08113,0.406329 -0.009,0.136334 -0.04448,0.396869 -0.106605,0.781719 l -0.07821,0.486238 c -0.06719,0.415789 -0.117964,0.693353 -0.151806,0.832468 -0.03439,0.138559 -0.106283,0.263428 -0.214793,0.3745 -0.108845,0.111062 -0.243838,0.185523 -0.405101,0.223698 -0.162155,0.03818 -0.341673,0.04163 -0.540664,0.0099 -0.246404,-0.03973 -0.441054,-0.112081 -0.584955,-0.21613 -0.143233,-0.104724 -0.23783,-0.234718 -0.283237,-0.38997 -0.0455,-0.155141 -0.0495,-0.342892 -0.01427,-0.561805 z m 1.047041,-0.948993 c -0.02397,0.147353 -0.01944,0.241394 0.01394,0.282349 0.0328,0.04074 0.07003,0.06411 0.110416,0.07067 0.06118,0.0099 0.10984,-0.0056 0.144794,-0.04419 0.03597,-0.03941 0.06377,-0.123306 0.08458,-0.251746 l 0.102162,-0.633142 c 0.02496,-0.153918 0.02779,-0.257085 0.0075,-0.308836 -0.01894,-0.0521 -0.06019,-0.0829 -0.122761,-0.09304 -0.03748,-0.0056 -0.08012,0.0056 -0.126755,0.03628 -0.0464,0.03061 -0.08305,0.125868 -0.109169,0.287024 L 61.445375,62.2225 Z m 3.668647,-0.926508 -0.08981,0.557129 -1.083985,-0.17473 -0.09627,0.597418 c 0.161263,-0.137778 0.348902,-0.189196 0.56281,-0.154807 0.240726,0.03907 0.412339,0.13556 0.51428,0.290474 0.101505,0.153695 0.121425,0.422466 0.05951,0.806092 l -0.08038,0.498701 c -0.03982,0.247071 -0.08113,0.427142 -0.123088,0.539213 -0.04315,0.111962 -0.11141,0.211011 -0.204783,0.297485 -0.0937,0.08547 -0.214458,0.144125 -0.362141,0.173839 -0.147907,0.02995 -0.32175,0.02904 -0.522411,-0.0033 -0.22459,-0.03628 -0.416786,-0.107289 -0.575713,-0.213906 -0.159042,-0.106067 -0.261877,-0.242616 -0.308836,-0.409889 -0.04708,-0.167163 -0.04448,-0.41323 0.0075,-0.738204 l 0.03064,-0.190535 0.871422,0.140787 -0.03505,0.217577 c -0.0363,0.225255 -0.05418,0.38652 -0.05333,0.484344 8.35e-4,0.09772 0.04866,0.153585 0.143902,0.169055 0.04406,0.0067 0.08171,-0.001 0.113518,-0.02393 0.03164,-0.02281 0.05075,-0.04931 0.05809,-0.0808 0.0075,-0.03128 0.0318,-0.167829 0.07379,-0.409778 l 0.111626,-0.691574 c 0.02111,-0.130883 0.02144,-0.221806 8.34e-4,-0.274447 -0.01995,-0.05143 -0.06244,-0.08236 -0.126537,-0.09271 -0.04132,-0.0067 -0.07788,0 -0.110068,0.01981 -0.03131,0.01992 -0.05333,0.04295 -0.0662,0.06943 -0.01268,0.02681 -0.02679,0.09081 -0.04332,0.192758 l -0.862515,-0.138782 0.320189,-1.75909 1.8755,0.302494 z m 2.413161,1.346749 -0.871421,-0.140673 c 0.02629,-0.163489 0.04165,-0.26688 0.04483,-0.309505 0.0032,-0.04351 -0.009,-0.08236 -0.03598,-0.116406 -0.02629,-0.03372 -0.06652,-0.0552 -0.120199,-0.06401 -0.04515,-0.0078 -0.08425,9.19e-4 -0.117965,0.02327 -0.03313,0.02248 -0.05583,0.05466 -0.06719,0.09716 -0.01174,0.04331 -0.02779,0.129657 -0.049,0.260315 l -0.08961,0.556461 c 0.06001,-0.08581 0.137006,-0.145125 0.2306,-0.177623 0.09439,-0.03249 0.204776,-0.03817 0.331984,-0.01758 0.159592,0.02581 0.294263,0.09203 0.402773,0.1981 0.10917,0.105958 0.169719,0.221806 0.183632,0.347901 0.01364,0.126208 0.0042,0.292809 -0.02931,0.498479 l -0.04449,0.277675 c -0.03973,0.244732 -0.07854,0.425583 -0.116083,0.541994 -0.03847,0.116407 -0.106066,0.218579 -0.204108,0.306612 -0.09716,0.08859 -0.222147,0.149576 -0.372607,0.182631 -0.151473,0.03283 -0.321192,0.03439 -0.509831,0.0032 -0.235051,-0.0375 -0.422357,-0.101287 -0.561249,-0.190532 -0.139453,-0.08859 -0.240058,-0.200327 -0.302493,-0.334991 -0.06118,-0.134782 -0.0887,-0.270109 -0.08012,-0.406329 0.0075,-0.135668 0.04283,-0.396869 0.105059,-0.782387 l 0.07787,-0.483678 c 0.06719,-0.415789 0.117977,-0.693352 0.153033,-0.831578 0.03531,-0.137892 0.106282,-0.263429 0.214459,-0.373497 0.10796,-0.11141 0.243622,-0.186192 0.405437,-0.224588 0.162156,-0.03817 0.342558,-0.04074 0.541666,-0.0089 0.244506,0.03941 0.439492,0.111734 0.583619,0.215795 0.144118,0.105059 0.238163,0.235384 0.282677,0.38997 0.04472,0.155477 0.04916,0.342891 0.01394,0.561805 z m -1.046815,0.947435 c 0.01995,-0.123087 0.01961,-0.21012 -5.6e-4,-0.259981 -0.02062,-0.05108 -0.06185,-0.08113 -0.124312,-0.09148 -0.06118,-0.0099 -0.109841,0.0056 -0.14457,0.04419 -0.0363,0.0394 -0.06402,0.122652 -0.08448,0.250075 l -0.10162,0.63103 c -0.02496,0.15425 -0.02805,0.256418 -0.009,0.308835 0.01903,0.05143 0.06,0.08236 0.123088,0.09239 0.03748,0.0056 0.08012,-0.0056 0.126536,-0.03628 0.04667,-0.02927 0.08288,-0.124873 0.109061,-0.2858 l 0.105384,-0.652952 z m -3.855404,5.836847 c -2.599788,-2.493174 -2.704518,-3.498257 -2.820373,-3.745883 -2.42028,-0.709267 -8.085293,-0.525634 -9.693915,2.133144 0.16193,0.517736 1.117489,1.701108 2.203258,2.46168 3.585064,-0.05583 7.339852,-0.520181 10.31103,-0.848941 z M 52.464531,63.294815 c 0.28513,-0.284576 0.58462,-0.563364 0.893121,-0.838144 -1.801386,-0.318965 -3.20434,0.50471 -4.943176,0.555238 -0.682662,0.01926 -1.01265,-0.463757 -1.695431,-0.484903 -1.099125,-0.03317 -2.479594,0.302827 -3.578719,0.322972 -0.828125,0.01547 -1.648354,-0.334324 -2.475477,-0.295816 -1.105136,0.05164 -2.179671,0.636593 -3.282912,0.565255 -1.150769,-0.07502 -1.865708,-0.729968 -3.014356,-0.83436 -1.05962,-0.09626 -2.168869,0.235605 -3.229158,0.322971 -0.679883,0.05586 -1.648019,-0.123988 -2.313437,0.02648 -0.540324,0.122761 -1.004747,0.466984 -1.507018,0.700032 0.01427,0.0099 -0.0075,0.03228 0.01894,0.04196 2.82761,2.02764 6.776716,3.345342 12.574286,3.509385 5.377543,0.151807 9.419468,-1.177695 12.553352,-3.591073 z m 18.170068,-4.965208 c 0.341332,-0.500371 0.06911,-2.019961 -1.032576,-2.362296 -2.309873,-0.71806 -3.56169,0.416457 -2.993547,1.435116 0.208899,0.58106 1.862037,0.496479 2.229527,-0.122418 l -0.09716,2.20426 c 0.774154,-0.0837 1.474512,-0.54077 1.893755,-1.154661 z m -2.231634,-0.305052 c -0.03246,0.516064 -0.06343,1.001299 -0.09594,1.517363 -0.664976,0.118971 -1.294336,0.08012 -1.832546,-0.02772 l -0.0067,-1.79693 c 0.463422,0.541326 1.220881,0.482008 1.935714,0.307278 z M 64.876878,37.534366 v 11.021527 c -0.39375,-0.595638 -0.55902,-1.119937 -0.22459,-1.480524 0.01862,-0.815552 -0.0042,-1.630993 0.0141,-2.446212 -1.008529,0.917719 -1.454255,2.040439 -1.644564,3.256643 -0.06519,0.703481 0.380837,1.658704 1.588807,2.781535 0.06118,0.06911 0.153917,0.153584 0.266217,0.249185 0.82623,0.674209 1.059061,0.819002 1.454371,1.272297 0.163709,0.192759 0.258088,0.368154 0.224916,0.504488 6.68e-4,-0.173171 -0.02613,1.769219 0.0099,2.031313 0.811323,0.08357 1.458712,-1.199735 1.375801,-1.98112 0.02479,-0.608548 -0.773594,-1.509905 -1.610851,-2.437083 v -10.4191 C 66.12999,38.841497 65.418947,38.243968 64.876613,37.534143 Z m 0,14.427636 v 7.184938 c 0.457079,0.163155 1.03291,0.268214 1.454373,0.336994 v -4.383592 -2.27482 c -0.684008,-0.379842 -1.325603,-0.831579 -1.454373,-0.86352 z m -0.284572,3.597421 c -0.505715,0.410446 -0.864411,0.861515 -0.961568,1.383701 0.114862,0.499035 0.502928,0.861516 0.989722,1.174137 -0.0099,-0.852722 -0.0187,-1.705114 -0.02813,-2.557838 z m 2.952255,-29.942376 c 0.235944,0 0.427473,0.191535 0.427473,0.428031 0,0.236051 -0.191529,0.427475 -0.427473,0.427475 -0.236276,0 -0.42747,-0.191424 -0.42747,-0.427475 0,-0.236496 0.191194,-0.428031 0.42747,-0.428031 z M 13.906214,53.207255 c -2.67525,-1.629657 -2.374538,-5.092972 -2.174544,-7.099353 0.680776,0.360587 1.552419,1.188049 2.174544,2.230414 -0.256529,0.430258 -0.470989,0.896795 -0.611996,1.382699 -0.222475,-0.91082 -0.586179,-1.821526 -1.122164,-2.732343 0.422132,1.027229 0.754341,2.081838 1.019329,3.158261 -0.195986,1.013205 -0.0464,2.084285 0.714831,3.060322 z m 0.192091,0.02715 c 2.675587,-1.629432 2.374984,-5.092636 2.17488,-7.099129 -1.617971,0.856507 -4.31626,4.352985 -2.17488,7.099129 z m 1.548081,-5.698732 c -0.972031,1.651803 -1.37925,3.303051 -1.400062,4.954189 0.306946,-1.703222 0.745439,-3.361371 1.400062,-4.954189 z m -1.688754,0.249517 c -1.252374,-0.762799 -1.111703,-2.383664 -1.017993,-3.322862 0.31863,0.169054 0.726518,0.556242 1.017993,1.044259 -0.120198,0.201216 -0.220472,0.419906 -0.286466,0.647055 -0.104389,-0.426586 -0.274783,-0.852724 -0.525859,-1.279309 0.197768,0.481118 0.353689,0.974478 0.477667,1.4783 -0.09216,0.474551 -0.02181,0.975813 0.334658,1.432557 z m 0.08993,0.01309 c 1.252486,-0.762638 1.111144,-2.383837 1.017438,-3.323035 -0.757125,0.400653 -2.020073,2.037654 -1.017438,3.322973 z m 0.724292,-2.667349 c -0.455187,0.772594 -0.645386,1.545743 -0.655179,2.31867 0.143569,-0.797189 0.348901,-1.572898 0.655179,-2.31867 z m -1.83922,7.728491 c 0.258087,0 0.466983,0.208784 0.466983,0.466539 0,0.257753 -0.208896,0.466983 -0.466983,0.466983 -0.257754,0 -0.46654,-0.20923 -0.46654,-0.466983 0,-0.257755 0.208786,-0.466539 0.46654,-0.466539 z m 2.2421,-0.149912 c -0.258088,0 -0.466874,0.208897 -0.466874,0.466651 0,0.258088 0.208786,0.466539 0.466874,0.466539 0.257753,0 0.46665,-0.208451 0.46665,-0.466539 0,-0.257754 -0.208897,-0.466651 -0.46665,-0.466651 z m -1.244808,0.611776 c -0.257754,0 -0.466984,0.208785 -0.466984,0.466872 0,0.257755 0.20923,0.46665 0.466984,0.46665 0.257753,0 0.466539,-0.208895 0.466539,-0.46665 0,-0.258087 -0.208786,-0.466872 -0.466539,-0.466872 z m 0.997849,0.330538 c -0.257753,0 -0.46665,0.208898 -0.46665,0.466985 0,0.257754 0.208897,0.466539 0.46665,0.466539 0.257753,0 0.466538,-0.208785 0.466538,-0.466539 0,-0.258087 -0.208785,-0.466985 -0.466538,-0.466985 z m -1.958192,0.274225 c -0.257754,0 -0.466539,0.208786 -0.466539,0.46654 0,0.257753 0.208785,0.466983 0.466539,0.466983 0.257753,0 0.466872,-0.20923 0.466872,-0.466983 0,-0.257754 -0.209119,-0.46654 -0.466872,-0.46654 z m 1.024336,0.421132 c -0.257754,0 -0.466539,0.208562 -0.466539,0.466315 0,0.257977 0.208785,0.466873 0.466539,0.466873 0.258087,0 0.466873,-0.208896 0.466873,-0.466873 0,-0.257753 -0.208786,-0.466315 -0.466873,-0.466315 z m -0.0877,-11.820556 c -2.675251,-1.629769 -2.374537,-5.093082 -2.174545,-7.099464 0.680777,0.360588 1.552419,1.188048 2.174545,2.230414 -0.25653,0.430258 -0.47099,0.897241 -0.611997,1.382699 -0.222473,-0.910484 -0.586179,-1.821191 -1.122163,-2.732344 0.422132,1.027231 0.754341,2.081839 1.019329,3.158261 -0.195987,1.013319 -0.0464,2.084287 0.714831,3.060434 z m 0.192091,0.02704 c 2.675586,-1.629321 2.374983,-5.092632 2.17488,-7.099127 -1.617971,0.856619 -4.31626,4.35332 -2.17488,7.099131 z m 1.548079,-5.698737 c -0.97203,1.651917 -1.379249,3.303386 -1.400061,4.9543 0.306946,-1.703333 0.745438,-3.361369 1.400061,-4.9543 z m -1.688753,0.249629 c -1.252375,-0.76291 -1.111704,-2.383775 -1.017994,-3.322974 0.318631,0.168832 0.726519,0.556241 1.017994,1.044259 -0.1202,0.201328 -0.220471,0.419908 -0.286467,0.647055 -0.104389,-0.426583 -0.274782,-0.852724 -0.525858,-1.279308 0.197767,0.481117 0.353687,0.974588 0.477666,1.478411 -0.09216,0.474774 -0.02181,0.975702 0.334659,1.432557 z m 0.08993,0.01295 c 1.252485,-0.762501 1.111145,-2.384144 1.017437,-3.322897 -0.757123,0.400654 -2.020072,2.037656 -1.017437,3.322864 z m 0.724291,-2.667015 c -0.455187,0.772593 -0.645385,1.545853 -0.655178,2.318447 0.143568,-0.7973 0.348901,-1.57301 0.655178,-2.318447 z m -1.839219,7.728156 c 0.258087,0 0.466983,0.208897 0.466983,0.466651 0,0.257975 -0.208896,0.466871 -0.466983,0.466871 -0.257755,0 -0.46654,-0.208896 -0.46654,-0.466871 0,-0.257754 0.208785,-0.466651 0.46654,-0.466651 z m 2.242098,-0.149799 c -0.258087,0 -0.466872,0.208785 -0.466872,0.466872 0,0.257752 0.208785,0.466539 0.466872,0.466539 0.257755,0 0.466652,-0.208787 0.466652,-0.466539 0,-0.258087 -0.208897,-0.466872 -0.466652,-0.466872 z m -1.244806,0.611663 c -0.257755,0 -0.466986,0.209118 -0.466986,0.466873 0,0.257754 0.209231,0.466648 0.466986,0.466648 0.257753,0 0.466538,-0.208894 0.466538,-0.466648 0,-0.257755 -0.208785,-0.466873 -0.466538,-0.466873 z m 0.997848,0.33065 c -0.257753,0 -0.466649,0.208786 -0.466649,0.466872 0,0.257755 0.208896,0.46654 0.466649,0.46654 0.257753,0 0.466539,-0.208785 0.466539,-0.46654 0,-0.258086 -0.208786,-0.466872 -0.466539,-0.466872 z m -1.958191,0.274115 c -0.257754,0 -0.46654,0.209119 -0.46654,0.466537 0,0.258087 0.208786,0.466983 0.46654,0.466983 0.257752,0 0.466871,-0.208896 0.466871,-0.466983 0,-0.257418 -0.209119,-0.466537 -0.466871,-0.466537 z m 1.024336,0.420796 c -0.257754,0 -0.46654,0.208897 -0.46654,0.466984 0,0.257754 0.208786,0.466538 0.46654,0.466538 0.258087,0 0.466872,-0.208784 0.466872,-0.466538 0,-0.258087 -0.208785,-0.466984 -0.466872,-0.466984 z m -0.0877,-11.75743 c -2.67525,-1.630102 -2.374538,-5.092969 -2.174545,-7.099465 0.680777,0.360255 1.552419,1.18805 2.174545,2.230416 -0.25653,0.430034 -0.47099,0.896907 -0.611997,1.382477 -0.222474,-0.910486 -0.586179,-1.821304 -1.122164,-2.732011 0.422132,1.02712 0.754341,2.081728 1.019329,3.158149 -0.195986,1.013319 -0.0464,2.084065 0.714832,3.060434 z m 0.19209,0.02716 c 2.675586,-1.629763 2.374984,-5.093076 2.17488,-7.099458 -1.617971,0.856507 -4.31626,4.353209 -2.17488,7.099463 z m 1.548082,-5.698734 c -0.972032,1.651471 -1.379251,3.303054 -1.400063,4.953857 0.306946,-1.703222 0.745439,-3.361036 1.400063,-4.953857 z m -1.688755,0.249184 c -1.252376,-0.762469 -1.111704,-2.383667 -1.017994,-3.322531 0.31863,0.168718 0.726517,0.555794 1.017992,1.044146 -0.120198,0.201329 -0.220471,0.419907 -0.286467,0.647055 -0.104388,-0.426808 -0.274782,-0.853057 -0.525858,-1.279198 0.197768,0.481118 0.353688,0.974479 0.477668,1.478301 -0.09216,0.474441 -0.02181,0.9757 0.334657,1.432223 z m 0.08993,0.01321 c 1.252486,-0.762773 1.111144,-2.383971 1.017437,-3.322836 -0.757124,0.400318 -2.020073,2.037656 -1.017437,3.322862 z m 0.724291,-2.667658 c -0.455187,0.773262 -0.645386,1.546189 -0.65518,2.319116 0.143569,-0.797188 0.348903,-1.573232 0.65518,-2.319116 z m -1.83922,7.728603 c 0.258087,0 0.466983,0.209119 0.466983,0.466872 0,0.257754 -0.208896,0.466538 -0.466983,0.466538 -0.257755,0 -0.46654,-0.208784 -0.46654,-0.466538 0,-0.257753 0.208785,-0.466872 0.46654,-0.466872 z M 15.17474,31.41083 c -0.258088,0 -0.466873,0.208897 -0.466873,0.466539 0,0.257754 0.208785,0.466984 0.466873,0.466984 0.257754,0 0.46665,-0.20923 0.46665,-0.466984 0,-0.257642 -0.208896,-0.466539 -0.46665,-0.466539 z m -1.244807,0.611664 c -0.257753,0 -0.466984,0.208897 -0.466984,0.466983 0,0.257755 0.209231,0.46654 0.466984,0.46654 0.257753,0 0.466539,-0.208785 0.466539,-0.46654 0,-0.258086 -0.208786,-0.466983 -0.466539,-0.466983 z m 0.997849,0.330651 c -0.257752,0 -0.46665,0.208895 -0.46665,0.466651 0,0.257641 0.208898,0.46687 0.46665,0.46687 0.257753,0 0.466538,-0.209229 0.466538,-0.46687 0,-0.257756 -0.208785,-0.466651 -0.466538,-0.466651 z m -1.958191,0.274114 c -0.257756,0 -0.466541,0.208896 -0.466541,0.466983 0,0.257754 0.208785,0.466204 0.466541,0.466204 0.257753,0 0.466871,-0.20845 0.466871,-0.466204 0,-0.258087 -0.209118,-0.466983 -0.466871,-0.466983 z m 1.024335,0.420908 c -0.257754,0 -0.466538,0.208784 -0.466538,0.466539 0,0.258088 0.208784,0.466984 0.466538,0.466984 0.258088,0 0.466874,-0.208896 0.466874,-0.466984 0,-0.257755 -0.208786,-0.466539 -0.466874,-0.466539 z m -0.421798,28.228026 0.57004,3.497369 -0.870976,0.142009 -0.306054,-1.877727 c -0.0444,-0.271331 -0.07756,-0.433818 -0.09905,-0.486128 -0.02204,-0.05242 -0.06434,-0.0887 -0.127094,-0.107288 -0.06276,-0.0186 -0.194651,-0.01126 -0.395979,0.02149 l -0.08603,0.01413 -0.06634,-0.405994 c 0.406662,-0.159037 0.696246,-0.397537 0.868529,-0.714499 z m 0.758681,2.513432 0.870754,-0.142009 c 0.02681,0.163489 0.04574,0.266323 0.05709,0.307612 0.01126,0.0423 0.03505,0.07545 0.07168,0.09872 0.03528,0.02404 0.08069,0.0316 0.134332,0.02271 0.04484,-0.0067 0.07957,-0.02704 0.104389,-0.05931 0.02471,-0.03182 0.03572,-0.06933 0.03228,-0.113519 -0.0032,-0.04384 -0.01614,-0.131212 -0.03729,-0.261205 l -0.09083,-0.556798 c -0.02816,0.09994 -0.0817,0.179737 -0.160261,0.240392 -0.07957,0.06054 -0.183299,0.101506 -0.311398,0.122637 -0.160261,0.02595 -0.308836,0.0056 -0.445169,-0.06086 -0.13689,-0.06589 -0.231266,-0.157376 -0.284242,-0.272565 -0.05265,-0.115747 -0.09649,-0.276673 -0.129983,-0.482674 l -0.04541,-0.2789 c -0.04007,-0.245401 -0.0602,-0.428699 -0.05966,-0.551678 -5.57e-4,-0.123087 0.03161,-0.241726 0.0956,-0.35558 0.06444,-0.115185 0.16282,-0.212012 0.296594,-0.292142 0.133105,-0.07913 0.294369,-0.134115 0.48301,-0.164936 0.233379,-0.03796 0.430257,-0.03695 0.590519,0.0033 0.16026,0.04063 0.291475,0.114514 0.393417,0.223362 0.102496,0.108176 0.170389,0.228039 0.20567,0.359921 0.03406,0.13222 0.08304,0.390527 0.145793,0.775154 l 0.07913,0.48646 c 0.06789,0.415788 0.107289,0.694911 0.119642,0.837587 0.01114,0.141899 -0.01768,0.283574 -0.08557,0.423358 -0.06811,0.139783 -0.172838,0.252634 -0.313512,0.340108 -0.142009,0.08736 -0.311396,0.147241 -0.510498,0.179739 -0.246069,0.04007 -0.45363,0.0335 -0.622683,-0.02014 -0.169164,-0.05431 -0.300045,-0.147685 -0.39253,-0.280457 -0.0917,-0.132887 -0.15514,-0.309837 -0.190866,-0.528417 z m 0.693464,-1.231341 c 0.02393,0.147351 0.0581,0.23505 0.102506,0.26343 0.04419,0.02837 0.08648,0.0385 0.127204,0.03216 0.06121,-0.0099 0.102495,-0.0394 0.123305,-0.08771 0.02181,-0.04885 0.02149,-0.137222 6.68e-4,-0.265654 l -0.103163,-0.632809 c -0.02527,-0.153916 -0.05485,-0.252633 -0.08993,-0.295593 -0.03439,-0.04352 -0.08304,-0.05988 -0.145792,-0.04954 -0.0375,0.0056 -0.07412,0.03094 -0.108847,0.07445 -0.03439,0.04351 -0.03907,0.145458 -0.01254,0.306945 z m 3.18753,-2.038546 0.09092,0.557132 -1.083322,0.17662 0.09738,0.597531 c 0.10984,-0.181742 0.271332,-0.289918 0.485237,-0.324975 0.240726,-0.03907 0.433484,-0.0023 0.579499,0.112955 0.144792,0.113843 0.248962,0.362479 0.311397,0.74577 l 0.08136,0.499149 c 0.04007,0.246625 0.05809,0.430591 0.05342,0.550453 -0.0056,0.119318 -0.03885,0.235051 -0.100046,0.346342 -0.0621,0.111062 -0.158037,0.204444 -0.289029,0.279567 -0.130543,0.07513 -0.295593,0.129317 -0.496142,0.161819 -0.225034,0.03695 -0.429368,0.02995 -0.614002,-0.02081 -0.18451,-0.05018 -0.325185,-0.147683 -0.422678,-0.291138 -0.09748,-0.1439 -0.172948,-0.377948 -0.225922,-0.703258 l -0.03094,-0.189863 0.871086,-0.142011 0.03528,0.217021 c 0.03695,0.22559 0.071,0.384292 0.102829,0.476777 0.03161,0.09237 0.09437,0.130543 0.189643,0.115076 0.04419,-0.0078 0.07734,-0.02716 0.100047,-0.05866 0.02303,-0.03182 0.03304,-0.06276 0.02995,-0.09527 -0.0032,-0.0316 -0.02303,-0.169386 -0.05966,-0.412004 l -0.11263,-0.691568 c -0.02113,-0.130882 -0.04986,-0.217353 -0.08547,-0.260535 -0.03505,-0.04263 -0.08515,-0.05867 -0.149243,-0.0483 -0.04163,0.0067 -0.07412,0.02493 -0.09805,0.05364 -0.02337,0.02904 -0.03761,0.05776 -0.04107,0.08704 -0.0032,0.02938 0.0033,0.09471 0.01992,0.196542 l -0.862184,0.140453 -0.252078,-1.769775 z m 2.373316,-0.386853 0.0906,0.55713 -1.083322,0.176733 0.09748,0.59753 c 0.109396,-0.182074 0.271221,-0.289917 0.484791,-0.324973 0.24106,-0.03917 0.434151,-0.0023 0.579945,0.112955 0.144791,0.113843 0.248851,0.362481 0.311286,0.745772 l 0.08147,0.499035 c 0.04007,0.246735 0.05798,0.430703 0.05332,0.550232 -0.0056,0.119534 -0.03885,0.235384 -0.100046,0.346676 -0.0621,0.111063 -0.158036,0.204445 -0.288917,0.279568 -0.130651,0.07502 -0.295592,0.129316 -0.496251,0.161819 -0.224923,0.03695 -0.429368,0.02994 -0.614002,-0.02081 -0.184524,-0.0502 -0.325197,-0.147685 -0.422689,-0.291476 -0.09748,-0.143568 -0.172838,-0.377951 -0.225925,-0.702924 l -0.03083,-0.189865 0.870976,-0.142343 0.0354,0.217354 c 0.03685,0.225591 0.07089,0.384293 0.102829,0.476666 0.03182,0.09249 0.0946,0.130326 0.189865,0.114862 0.04419,-0.0067 0.07702,-0.02683 0.100046,-0.05832 0.02271,-0.03195 0.03284,-0.06276 0.02961,-0.09527 -0.0023,-0.03194 -0.02303,-0.169499 -0.05966,-0.412339 L 20.17844,62.039665 c -0.02137,-0.130884 -0.04953,-0.217355 -0.08547,-0.260536 -0.03494,-0.04263 -0.08547,-0.05876 -0.149467,-0.0483 -0.04141,0.0067 -0.07356,0.02494 -0.09784,0.05364 -0.02337,0.02904 -0.03728,0.05776 -0.04107,0.08704 -0.0032,0.02939 0.0032,0.09471 0.01992,0.196543 l -0.862184,0.14045 -0.252411,-1.769885 z m -9.540891,-2.10855 c 0.03249,0.516064 0.06343,1.001299 0.09626,1.517363 0.664641,0.118971 1.294332,0.08012 1.832545,-0.02772 l 0.0067,-1.796929 c -0.463199,0.541326 -1.220991,0.482007 -1.935824,0.307276 z M 8.81259,58.329394 c -0.3416688,-0.500372 -0.069437,-2.019961 1.0325715,-2.362297 2.3098785,-0.718059 3.5616975,0.416458 2.9935475,1.435119 -0.208562,0.581057 -1.861924,0.496475 -2.229524,-0.12242 l 0.09716,2.204261 C 9.9325252,59.40036 9.2321624,58.943286 8.8125893,58.329396 Z m 27.819467,-6.393427 c 0.433482,-0.416122 0.844937,-0.853724 1.208639,-1.340184 0.157698,1.138633 0.31518,2.277156 0.472877,3.416013 -0.376612,0.122421 -0.753001,0.245067 -1.129724,0.367822 -0.367824,-0.968246 -0.604436,-1.826309 -0.551792,-2.443651 z m 4.755864,2.522224 c 0.168391,-1.225999 0.374394,-2.478375 0.472887,-3.704597 0.402875,0.393976 0.805755,0.788065 1.20852,1.182373 -0.03439,1.033463 -0.314846,2.066704 -0.630577,3.100501 -0.332875,-0.201662 -0.718064,-0.376726 -1.05083,-0.578277 z m -2.758833,-0.446395 c -0.166604,-1.279307 -0.332875,-2.557836 -0.49948,-3.836477 l 1.377695,-2.504306 v -1.496225 h -0.61012 v -0.681444 h 0.610112 v -0.731971 h 0.630696 v 0.731971 h 0.610103 v 0.681444 h -0.610103 v 1.353652 l 1.43378,2.646871 c -0.157367,1.401286 -0.315181,2.802681 -0.473214,4.203966 -0.12242,-0.01736 -0.244733,-0.03495 -0.367492,-0.05231 -0.09371,-1.044592 0.134113,-2.437418 -0.893457,-2.47025 -0.781715,0.0237 -0.824676,1.032573 -0.762134,2.181224 -0.148575,-0.0089 -0.297485,-0.01768 -0.446394,-0.02615 z m 1.313593,-5.045114 c 0.406329,0 0.73575,0.329648 0.73575,0.735756 0,0.406552 -0.329421,0.735979 -0.73575,0.735979 -0.406329,0 -0.73565,-0.329427 -0.73565,-0.735979 0,-0.406108 0.329321,-0.735756 0.73565,-0.735756 z m -9.610896,5.381441 c 1.883405,-0.950883 3.874651,-0.932854 5.597127,0.269106 l -0.0099,0.0375 c -1.024003,0.344116 -2.007715,0.700364 -3.083469,0.666865 -0.913272,-0.02837 -1.685197,-0.503487 -2.4825,-0.932519 l -0.02137,-0.04095 z m 12.822123,1.048932 c 1.673954,-1.428217 4.928036,-2.125353 7.177036,-0.551454 l -0.0024,10e-4 -0.05777,0.02527 -0.0464,0.02014 -0.01394,0.0056 -0.06019,0.02648 -0.02997,0.01321 -0.0303,0.01321 -0.06001,0.02681 -0.01362,0.0067 -0.04641,0.02047 -0.05733,0.02595 -0.0033,10e-4 -0.06001,0.02682 -0.04098,0.0186 -0.01894,0.0089 -0.06036,0.02716 -0.02462,0.01114 -0.03497,0.01604 -0.06036,0.02716 -0.009,0.0032 -0.05143,0.02337 -0.05242,0.02392 -0.0075,0.0032 -0.05985,0.02704 -0.03598,0.01614 -0.02405,0.01114 -0.06019,0.02716 -0.01961,0.0089 -0.04007,0.01836 -0.06036,0.02681 -0.0032,10e-4 -0.05677,0.02527 -0.047,0.02081 -0.01321,0.0056 -0.06,0.02648 -0.03096,0.0138 -0.02931,0.0124 -0.06001,0.02648 -0.01445,0.0067 -0.04574,0.01981 -0.05876,0.02493 -0.0024,0.001 -0.05985,0.02581 -0.04264,0.01804 -0.01795,0.0078 -0.06068,0.02527 -0.02578,0.01114 -0.03439,0.01425 -0.06052,0.02494 -0.0099,0.0032 -0.05108,0.02081 -0.05367,0.02137 -0.0067,0.0032 -0.06086,0.02392 -0.03715,0.01458 -0.02337,0.0089 -0.06118,0.02337 -0.02079,0.0078 -0.04007,0.01513 -0.06118,0.02271 -0.0042,10e-4 -0.05643,0.02081 -0.04884,0.01736 -0.01268,0.0043 -0.06118,0.02171 -0.03247,0.01114 -0.02872,0.0099 -0.06177,0.02081 -0.01577,0.0056 -0.04574,0.0148 -0.06086,0.01959 -6.67e-4,2.22e-4 -0.18608,0.05653 -0.02746,0.0078 -0.03497,0.0099 -0.06219,0.01703 -0.0099,0.0033 -0.05207,0.01364 -0.05619,0.01513 -0.0067,0.001 -0.102277,0.02527 -0.02303,0.0056 -0.06335,0.0148 -0.02212,0.0056 -0.04098,0.0089 -0.06311,0.01321 -0.0058,10e-4 -0.05843,0.01174 -0.05141,0.0099 -0.01174,0.0023 -0.06402,0.01126 -0.03439,0.0056 -0.02939,0.0043 -0.06436,0.0099 -0.01736,0.0032 -0.01126,0.001 -0.09972,0.01391 -0.100932,0.01114 -0.0099,9.19e-4 -0.09115,0.0078 -0.01895,10e-4 -0.01321,5.56e-4 -0.09404,0.0043 h -0.0024 l -0.02212,6.67e-4 -0.0808,9.19e-4 h -0.0067 -0.01199 l -0.05017,-3.34e-4 -0.04734,-10e-4 h -0.0024 l -0.05016,-10e-4 -0.04983,-0.0023 -0.0067,-3.34e-4 -0.0099,-9.19e-4 -0.08238,-0.0056 -0.01644,-10e-4 -0.0334,-0.0032 -0.04983,-0.0056 -0.02564,-0.0023 -0.02397,-0.0032 -0.08012,-0.0099 -0.0058,-6.68e-4 -0.01494,-0.0023 -0.08925,-0.01349 -0.0042,-10e-4 -0.0058,-6.68e-4 -0.04966,-0.0089 -0.0495,-0.0089 -0.0042,-9.19e-4 -0.09116,-0.01804 -0.0032,-9.16e-4 -0.01378,-0.0032 -0.01174,-0.0023 -0.07387,-0.01614 -0.02296,-0.0056 -0.02663,-0.0067 -0.04916,-0.01186 -0.0067,-0.0023 -0.04265,-0.01114 -0.0495,-0.01295 -0.04165,-0.01127 -0.0075,-0.0023 -0.0984,-0.02838 -0.0024,-6.68e-4 -0.04741,-0.01413 -0.0495,-0.01525 -0.01102,-0.0032 -0.03815,-0.01255 -0.04916,-0.0158 -0.02045,-0.0067 -0.02904,-0.0099 -0.04916,-0.0168 -0.02972,-0.0099 -0.01945,-0.0067 -0.04932,-0.01758 -0.03907,-0.01425 -0.0099,-0.0032 -0.04916,-0.01825 -0.04832,-0.01768 -8.34e-4,-10e-4 -0.04916,-0.01825 -0.049,-0.01926 -0.009,-0.0032 -0.04073,-0.01614 -0.04916,-0.01959 -0.01769,-0.0067 -0.03131,-0.01295 -0.04916,-0.02047 -0.02679,-0.01114 -0.02204,-0.0089 -0.04916,-0.0206 -0.03665,-0.01568 -0.0124,-0.0056 -0.04916,-0.0217 -0.04541,-0.01959 -0.0032,-0.001 -0.04932,-0.02181 -0.04916,-0.02204 -0.0058,-0.0023 -0.04315,-0.01959 -0.04884,-0.02237 -0.01528,-0.0067 -0.03372,-0.01536 -0.04884,-0.02303 -0.02496,-0.01114 -0.02429,-0.01162 c -0.03131,-0.03817 -0.06118,-0.07702 -0.08871,-0.116754 z M 20.859552,54.080567 c 1.399169,0.03561 2.782875,0.378283 4.144095,0.05198 0.811431,-0.194318 2.4333,-0.356693 3.60588,-0.161153 1.478627,0.246068 2.699509,1.568892 4.197727,1.614299 2.194136,0.06654 4.269078,-1.453146 6.458088,-1.29155 2.342379,0.172838 4.324827,2.241432 6.673549,2.260019 2.405472,0.01892 4.49967,-1.924361 6.888782,-2.205486 1.971333,-0.231822 3.946219,0.483345 5.919878,0.698806 -0.76792,1.602613 -1.625091,3.083473 -2.598904,4.416312 -0.739431,0.241394 -1.445466,0.311731 -2.191015,0.318966 -0.961567,0.0089 -1.893421,-0.500706 -2.852209,-0.430592 -0.814886,0.05953 -1.497549,0.777267 -2.314333,0.807317 -1.199062,0.04408 -1.867928,-0.53799 -3.525079,-0.511168 -1.006082,0.01614 -1.981448,0.630696 -2.986863,0.591855 -0.901028,-0.03494 -1.385592,-0.888004 -2.583102,-0.888004 -1.231676,0 -2.376878,0.939421 -3.605654,0.860848 -1.117047,-0.07122 -1.787808,-1.161894 -3.068003,-1.18393 -1.758426,-0.0296 -3.331325,0.845155 -5.22007,0.968803 -1.283093,0.08392 -2.655106,-0.03372 -3.939983,-0.53031 v -0.0099 h -0.02496 l -0.123973,-0.0502 0.02361,0.0502 H 23.56608 C 22.446814,57.807385 21.600987,55.980185 20.859555,54.080085 Z M 18.834249,21.065401 c 14.055697,0 28.111058,0 42.166752,0 V 41.647963 H 18.919723 c -0.02838,-6.860964 -0.05677,-13.721929 -0.08547,-20.582562"
       style="fill:#009cde;fill-opacity:0.94117647;fill-rule:evenodd;stroke:none;stroke-width:1.11292577"
       id="path167"
       inkscape:connector-curvature="0" />
  </g>
</svg>
